<?xml version="1.0" standalone="no"?>
<!DOCTYPE svg PUBLIC "-//W3C//DTD SVG 1.1//EN" "http://www.w3.org/Graphics/SVG/1.1/DTD/svg11.dtd">
<svg width="117.0mm" height="519.1mm"
 viewBox="0 0 117.0 519.1"
 xmlns="http://www.w3.org/2000/svg" version="1.1"
 xmlns:xlink="http://www.w3.org/1999/xlink">
<desc>Output from Flights of Ideas SVG Sketchup Plugin</desc>

  <g id="face0" fill="none" stroke="rgb(0,0,255)" stroke-width="1" stroke-miterlimit="4" stroke-dasharray="none" stroke-linejoin="round" stroke-linecap="round">
    <line x1="10.0" y1="10.0" x2="10.0" y2="63.0"/>
    <line x1="10.0" y1="63.0" x2="40.0" y2="63.0"/>
    <line x1="40.0" y1="63.0" x2="40.0" y2="52.9999999999999"/>
    <line x1="40.0" y1="52.9999999999999" x2="43.0" y2="53.0"/>
    <line x1="43.0" y1="53.0" x2="43.0" y2="30.0"/>
    <line x1="43.0" y1="30.0" x2="40.0" y2="30.0"/>
    <line x1="40.0" y1="30.0" x2="40.0" y2="21.5"/>
    <line x1="40.0" y1="21.5" x2="38.0" y2="21.5"/>
    <line x1="38.0" y1="21.5" x2="38.0" y2="22.8"/>
    <line x1="38.0" y1="22.8" x2="35.8" y2="22.8"/>
    <line x1="35.8" y1="22.8" x2="35.8" y2="21.5"/>
    <line x1="35.8" y1="21.5" x2="32.8" y2="21.5"/>
    <line x1="32.8" y1="21.5" x2="32.8" y2="18.5"/>
    <line x1="32.8" y1="18.5" x2="35.8" y2="18.5"/>
    <line x1="35.8" y1="18.5" x2="35.8" y2="17.2"/>
    <line x1="35.8" y1="17.2" x2="38.0" y2="17.2"/>
    <line x1="38.0" y1="17.2" x2="38.0" y2="18.5"/>
    <line x1="38.0" y1="18.5" x2="40.0" y2="18.5"/>
    <line x1="40.0" y1="18.5" x2="40.0" y2="10.0"/>
    <line x1="40.0" y1="10.0" x2="10.0" y2="10.0"/>
    <line x1="30.0" y1="18.0" x2="30.0" y2="53.0"/>
    <line x1="30.0" y1="53.0" x2="15.0" y2="53.0"/>
    <line x1="15.0" y1="53.0" x2="15.0" y2="18.0"/>
    <line x1="15.0" y1="18.0" x2="30.0" y2="18.0"/>
    <line x1="25.0" y1="57.0" x2="35.0" y2="57.0"/>
    <line x1="35.0" y1="57.0" x2="35.0" y2="60.0"/>
    <line x1="35.0" y1="60.0" x2="25.0" y2="60.0"/>
    <line x1="25.0" y1="60.0" x2="25.0" y2="57.0"/>
    <line x1="19.9488887394336" y1="58.1117714323462" x2="20.0" y2="58.5"/>
    <line x1="20.0" y1="58.5" x2="19.9488887394336" y2="58.8882285676538"/>
    <line x1="19.9488887394336" y1="58.8882285676538" x2="19.7990381056766" y2="59.25"/>
    <line x1="19.7990381056766" y1="59.25" x2="19.5606601717798" y2="59.5606601717798"/>
    <line x1="19.5606601717798" y1="59.5606601717798" x2="19.25" y2="59.7990381056767"/>
    <line x1="19.25" y1="59.7990381056767" x2="18.8882285676538" y2="59.9488887394336"/>
    <line x1="18.8882285676538" y1="59.9488887394336" x2="18.5" y2="60.0"/>
    <line x1="18.5" y1="60.0" x2="18.1117714323462" y2="59.9488887394336"/>
    <line x1="18.1117714323462" y1="59.9488887394336" x2="17.75" y2="59.7990381056767"/>
    <line x1="17.75" y1="59.7990381056767" x2="17.4393398282202" y2="59.5606601717798"/>
    <line x1="17.4393398282202" y1="59.5606601717798" x2="17.2009618943233" y2="59.25"/>
    <line x1="17.2009618943233" y1="59.25" x2="17.0511112605664" y2="58.8882285676538"/>
    <line x1="17.0511112605664" y1="58.8882285676538" x2="17.0" y2="58.5"/>
    <line x1="17.0" y1="58.5" x2="17.0511112605664" y2="58.1117714323462"/>
    <line x1="17.0511112605664" y1="58.1117714323462" x2="17.2009618943233" y2="57.75"/>
    <line x1="17.2009618943233" y1="57.75" x2="17.4393398282202" y2="57.4393398282201"/>
    <line x1="17.4393398282202" y1="57.4393398282201" x2="17.75" y2="57.2009618943233"/>
    <line x1="17.75" y1="57.2009618943233" x2="18.1117714323462" y2="57.0511112605664"/>
    <line x1="18.1117714323462" y1="57.0511112605664" x2="18.5" y2="57.0"/>
    <line x1="18.5" y1="57.0" x2="18.8882285676538" y2="57.0511112605664"/>
    <line x1="18.8882285676538" y1="57.0511112605664" x2="19.25" y2="57.2009618943233"/>
    <line x1="19.25" y1="57.2009618943233" x2="19.5606601717798" y2="57.4393398282201"/>
    <line x1="19.5606601717798" y1="57.4393398282201" x2="19.7990381056766" y2="57.75"/>
    <line x1="19.7990381056766" y1="57.75" x2="19.9488887394336" y2="58.1117714323462"/>
  </g>
  <g id="face1" fill="none" stroke="rgb(0,0,255)" stroke-width="1" stroke-miterlimit="4" stroke-dasharray="none" stroke-linejoin="round" stroke-linecap="round">
    <line x1="13.0" y1="123.0" x2="98.0" y2="123.0"/>
    <line x1="98.0" y1="123.0" x2="98.0" y2="99.0"/>
    <line x1="98.0" y1="99.0" x2="96.0" y2="98.9999999999999"/>
    <line x1="96.0" y1="98.9999999999999" x2="96.0" y2="100.3"/>
    <line x1="96.0" y1="100.3" x2="93.8" y2="100.3"/>
    <line x1="93.8" y1="100.3" x2="93.8" y2="99.0"/>
    <line x1="93.8" y1="99.0" x2="90.8" y2="98.9999999999999"/>
    <line x1="90.8" y1="98.9999999999999" x2="90.8" y2="96.0"/>
    <line x1="90.8" y1="96.0" x2="93.8" y2="96.0"/>
    <line x1="93.8" y1="96.0" x2="93.8" y2="94.7"/>
    <line x1="93.8" y1="94.7" x2="96.0" y2="94.6999999999999"/>
    <line x1="96.0" y1="94.6999999999999" x2="96.0" y2="96.0"/>
    <line x1="96.0" y1="96.0" x2="98.0" y2="96.0"/>
    <line x1="98.0" y1="96.0" x2="98.0" y2="90.9999999999999"/>
    <line x1="98.0" y1="90.9999999999999" x2="101.0" y2="91.0"/>
    <line x1="101.0" y1="91.0" x2="101.0" y2="81.0"/>
    <line x1="101.0" y1="81.0" x2="98.0" y2="81.0"/>
    <line x1="98.0" y1="81.0" x2="98.0" y2="75.9999999999999"/>
    <line x1="98.0" y1="75.9999999999999" x2="89.5" y2="75.9999999999999"/>
    <line x1="89.5" y1="75.9999999999999" x2="89.5" y2="77.9999999999999"/>
    <line x1="89.5" y1="77.9999999999999" x2="90.8" y2="77.9999999999999"/>
    <line x1="90.8" y1="77.9999999999999" x2="90.8" y2="80.2"/>
    <line x1="90.8" y1="80.2" x2="89.5" y2="80.1999999999999"/>
    <line x1="89.5" y1="80.1999999999999" x2="89.5" y2="83.2"/>
    <line x1="89.5" y1="83.2" x2="86.5" y2="83.2"/>
    <line x1="86.5" y1="83.2" x2="86.5" y2="80.2"/>
    <line x1="86.5" y1="80.2" x2="85.2" y2="80.2"/>
    <line x1="85.2" y1="80.2" x2="85.2" y2="77.9999999999999"/>
    <line x1="85.2" y1="77.9999999999999" x2="86.5" y2="77.9999999999999"/>
    <line x1="86.5" y1="77.9999999999999" x2="86.5" y2="75.9999999999999"/>
    <line x1="86.5" y1="75.9999999999999" x2="78.0" y2="75.9999999999999"/>
    <line x1="78.0" y1="75.9999999999999" x2="78.0" y2="73.0"/>
    <line x1="78.0" y1="73.0" x2="33.0" y2="73.0"/>
    <line x1="33.0" y1="73.0" x2="33.0" y2="75.9999999999999"/>
    <line x1="33.0" y1="75.9999999999999" x2="24.5" y2="75.9999999999999"/>
    <line x1="24.5" y1="75.9999999999999" x2="24.5" y2="77.9999999999999"/>
    <line x1="24.5" y1="77.9999999999999" x2="25.8" y2="77.9999999999999"/>
    <line x1="25.8" y1="77.9999999999999" x2="25.8" y2="80.2"/>
    <line x1="25.8" y1="80.2" x2="24.5" y2="80.2"/>
    <line x1="24.5" y1="80.2" x2="24.5" y2="83.2"/>
    <line x1="24.5" y1="83.2" x2="21.5" y2="83.2"/>
    <line x1="21.5" y1="83.2" x2="21.5" y2="80.2"/>
    <line x1="21.5" y1="80.2" x2="20.2" y2="80.2"/>
    <line x1="20.2" y1="80.2" x2="20.2" y2="77.9999999999999"/>
    <line x1="20.2" y1="77.9999999999999" x2="21.5" y2="77.9999999999999"/>
    <line x1="21.5" y1="77.9999999999999" x2="21.5" y2="75.9999999999999"/>
    <line x1="21.5" y1="75.9999999999999" x2="13.0" y2="75.9999999999999"/>
    <line x1="13.0" y1="75.9999999999999" x2="13.0" y2="81.0"/>
    <line x1="13.0" y1="81.0" x2="10.0" y2="81.0"/>
    <line x1="10.0" y1="81.0" x2="10.0" y2="90.9999999999999"/>
    <line x1="10.0" y1="90.9999999999999" x2="13.0" y2="90.9999999999999"/>
    <line x1="13.0" y1="90.9999999999999" x2="13.0" y2="95.9999999999999"/>
    <line x1="13.0" y1="95.9999999999999" x2="15.0" y2="95.9999999999999"/>
    <line x1="15.0" y1="95.9999999999999" x2="15.0" y2="94.7"/>
    <line x1="15.0" y1="94.7" x2="17.2" y2="94.7"/>
    <line x1="17.2" y1="94.7" x2="17.2" y2="95.9999999999999"/>
    <line x1="17.2" y1="95.9999999999999" x2="20.2" y2="96.0"/>
    <line x1="20.2" y1="96.0" x2="20.2" y2="98.9999999999999"/>
    <line x1="20.2" y1="98.9999999999999" x2="17.2" y2="98.9999999999999"/>
    <line x1="17.2" y1="98.9999999999999" x2="17.2" y2="100.3"/>
    <line x1="17.2" y1="100.3" x2="15.0" y2="100.3"/>
    <line x1="15.0" y1="100.3" x2="15.0" y2="98.9999999999999"/>
    <line x1="15.0" y1="98.9999999999999" x2="13.0" y2="98.9999999999999"/>
    <line x1="13.0" y1="98.9999999999999" x2="13.0" y2="123.0"/>
    <line x1="68.0" y1="110.0" x2="68.0" y2="107.0"/>
    <line x1="68.0" y1="107.0" x2="88.0" y2="107.0"/>
    <line x1="88.0" y1="107.0" x2="88.0" y2="110.0"/>
    <line x1="88.0" y1="110.0" x2="68.0" y2="110.0"/>
    <line x1="23.0" y1="110.0" x2="23.0" y2="107.0"/>
    <line x1="23.0" y1="107.0" x2="43.0" y2="107.0"/>
    <line x1="43.0" y1="107.0" x2="43.0" y2="110.0"/>
    <line x1="43.0" y1="110.0" x2="23.0" y2="110.0"/>
    <line x1="54.0511112605664" y1="108.888228567654" x2="54.0" y2="108.5"/>
    <line x1="54.0" y1="108.5" x2="54.0511112605664" y2="108.111771432346"/>
    <line x1="54.0511112605664" y1="108.111771432346" x2="54.2009618943234" y2="107.75"/>
    <line x1="54.2009618943234" y1="107.75" x2="54.4393398282202" y2="107.43933982822"/>
    <line x1="54.4393398282202" y1="107.43933982822" x2="54.75" y2="107.200961894323"/>
    <line x1="54.75" y1="107.200961894323" x2="55.1117714323462" y2="107.051111260566"/>
    <line x1="55.1117714323462" y1="107.051111260566" x2="55.5" y2="107.0"/>
    <line x1="55.5" y1="107.0" x2="55.8882285676538" y2="107.051111260566"/>
    <line x1="55.8882285676538" y1="107.051111260566" x2="56.25" y2="107.200961894323"/>
    <line x1="56.25" y1="107.200961894323" x2="56.5606601717798" y2="107.43933982822"/>
    <line x1="56.5606601717798" y1="107.43933982822" x2="56.7990381056766" y2="107.75"/>
    <line x1="56.7990381056766" y1="107.75" x2="56.9488887394336" y2="108.111771432346"/>
    <line x1="56.9488887394336" y1="108.111771432346" x2="57.0" y2="108.5"/>
    <line x1="57.0" y1="108.5" x2="56.9488887394336" y2="108.888228567654"/>
    <line x1="56.9488887394336" y1="108.888228567654" x2="56.7990381056766" y2="109.25"/>
    <line x1="56.7990381056766" y1="109.25" x2="56.5606601717798" y2="109.56066017178"/>
    <line x1="56.5606601717798" y1="109.56066017178" x2="56.25" y2="109.799038105677"/>
    <line x1="56.25" y1="109.799038105677" x2="55.8882285676538" y2="109.948888739434"/>
    <line x1="55.8882285676538" y1="109.948888739434" x2="55.5" y2="110.0"/>
    <line x1="55.5" y1="110.0" x2="55.1117714323462" y2="109.948888739434"/>
    <line x1="55.1117714323462" y1="109.948888739434" x2="54.75" y2="109.799038105677"/>
    <line x1="54.75" y1="109.799038105677" x2="54.4393398282202" y2="109.56066017178"/>
    <line x1="54.4393398282202" y1="109.56066017178" x2="54.2009618943234" y2="109.25"/>
    <line x1="54.2009618943234" y1="109.25" x2="54.0511112605664" y2="108.888228567654"/>
    <line x1="43.0" y1="102.0" x2="43.0" y2="105.0"/>
    <line x1="43.0" y1="105.0" x2="23.0" y2="105.0"/>
    <line x1="23.0" y1="105.0" x2="23.0" y2="102.0"/>
    <line x1="23.0" y1="102.0" x2="43.0" y2="102.0"/>
    <line x1="88.0" y1="105.0" x2="68.0" y2="105.0"/>
    <line x1="68.0" y1="105.0" x2="68.0" y2="102.0"/>
    <line x1="68.0" y1="102.0" x2="88.0" y2="102.0"/>
    <line x1="88.0" y1="102.0" x2="88.0" y2="105.0"/>
    <line x1="54.0511112605664" y1="103.888228567654" x2="54.0" y2="103.5"/>
    <line x1="54.0" y1="103.5" x2="54.0511112605664" y2="103.111771432346"/>
    <line x1="54.0511112605664" y1="103.111771432346" x2="54.2009618943234" y2="102.75"/>
    <line x1="54.2009618943234" y1="102.75" x2="54.4393398282202" y2="102.43933982822"/>
    <line x1="54.4393398282202" y1="102.43933982822" x2="54.75" y2="102.200961894323"/>
    <line x1="54.75" y1="102.200961894323" x2="55.1117714323462" y2="102.051111260566"/>
    <line x1="55.1117714323462" y1="102.051111260566" x2="55.5" y2="102.0"/>
    <line x1="55.5" y1="102.0" x2="55.8882285676538" y2="102.051111260566"/>
    <line x1="55.8882285676538" y1="102.051111260566" x2="56.25" y2="102.200961894323"/>
    <line x1="56.25" y1="102.200961894323" x2="56.5606601717798" y2="102.43933982822"/>
    <line x1="56.5606601717798" y1="102.43933982822" x2="56.7990381056766" y2="102.75"/>
    <line x1="56.7990381056766" y1="102.75" x2="56.9488887394336" y2="103.111771432346"/>
    <line x1="56.9488887394336" y1="103.111771432346" x2="57.0" y2="103.5"/>
    <line x1="57.0" y1="103.5" x2="56.9488887394336" y2="103.888228567654"/>
    <line x1="56.9488887394336" y1="103.888228567654" x2="56.7990381056766" y2="104.25"/>
    <line x1="56.7990381056766" y1="104.25" x2="56.5606601717798" y2="104.56066017178"/>
    <line x1="56.5606601717798" y1="104.56066017178" x2="56.25" y2="104.799038105677"/>
    <line x1="56.25" y1="104.799038105677" x2="55.8882285676538" y2="104.948888739434"/>
    <line x1="55.8882285676538" y1="104.948888739434" x2="55.5" y2="105.0"/>
    <line x1="55.5" y1="105.0" x2="55.1117714323462" y2="104.948888739434"/>
    <line x1="55.1117714323462" y1="104.948888739434" x2="54.75" y2="104.799038105677"/>
    <line x1="54.75" y1="104.799038105677" x2="54.4393398282202" y2="104.56066017178"/>
    <line x1="54.4393398282202" y1="104.56066017178" x2="54.2009618943234" y2="104.25"/>
    <line x1="54.2009618943234" y1="104.25" x2="54.0511112605664" y2="103.888228567654"/>
    <line x1="43.0" y1="112.0" x2="43.0" y2="115.0"/>
    <line x1="43.0" y1="115.0" x2="23.0" y2="115.0"/>
    <line x1="23.0" y1="115.0" x2="23.0" y2="112.0"/>
    <line x1="23.0" y1="112.0" x2="43.0" y2="112.0"/>
    <line x1="88.0" y1="115.0" x2="68.0" y2="115.0"/>
    <line x1="68.0" y1="115.0" x2="68.0" y2="112.0"/>
    <line x1="68.0" y1="112.0" x2="88.0" y2="112.0"/>
    <line x1="88.0" y1="112.0" x2="88.0" y2="115.0"/>
    <line x1="54.0511112605664" y1="113.888228567654" x2="54.0" y2="113.5"/>
    <line x1="54.0" y1="113.5" x2="54.0511112605664" y2="113.111771432346"/>
    <line x1="54.0511112605664" y1="113.111771432346" x2="54.2009618943234" y2="112.75"/>
    <line x1="54.2009618943234" y1="112.75" x2="54.4393398282202" y2="112.43933982822"/>
    <line x1="54.4393398282202" y1="112.43933982822" x2="54.75" y2="112.200961894323"/>
    <line x1="54.75" y1="112.200961894323" x2="55.1117714323462" y2="112.051111260566"/>
    <line x1="55.1117714323462" y1="112.051111260566" x2="55.5" y2="112.0"/>
    <line x1="55.5" y1="112.0" x2="55.8882285676538" y2="112.051111260566"/>
    <line x1="55.8882285676538" y1="112.051111260566" x2="56.25" y2="112.200961894323"/>
    <line x1="56.25" y1="112.200961894323" x2="56.5606601717798" y2="112.43933982822"/>
    <line x1="56.5606601717798" y1="112.43933982822" x2="56.7990381056766" y2="112.75"/>
    <line x1="56.7990381056766" y1="112.75" x2="56.9488887394336" y2="113.111771432346"/>
    <line x1="56.9488887394336" y1="113.111771432346" x2="57.0" y2="113.5"/>
    <line x1="57.0" y1="113.5" x2="56.9488887394336" y2="113.888228567654"/>
    <line x1="56.9488887394336" y1="113.888228567654" x2="56.7990381056766" y2="114.25"/>
    <line x1="56.7990381056766" y1="114.25" x2="56.5606601717798" y2="114.56066017178"/>
    <line x1="56.5606601717798" y1="114.56066017178" x2="56.25" y2="114.799038105677"/>
    <line x1="56.25" y1="114.799038105677" x2="55.8882285676538" y2="114.948888739434"/>
    <line x1="55.8882285676538" y1="114.948888739434" x2="55.5" y2="115.0"/>
    <line x1="55.5" y1="115.0" x2="55.1117714323462" y2="114.948888739434"/>
    <line x1="55.1117714323462" y1="114.948888739434" x2="54.75" y2="114.799038105677"/>
    <line x1="54.75" y1="114.799038105677" x2="54.4393398282202" y2="114.56066017178"/>
    <line x1="54.4393398282202" y1="114.56066017178" x2="54.2009618943234" y2="114.25"/>
    <line x1="54.2009618943234" y1="114.25" x2="54.0511112605664" y2="113.888228567654"/>
    <line x1="55.8882285676538" y1="119.948888739434" x2="55.5" y2="120.0"/>
    <line x1="55.5" y1="120.0" x2="55.1117714323462" y2="119.948888739434"/>
    <line x1="55.1117714323462" y1="119.948888739434" x2="54.75" y2="119.799038105677"/>
    <line x1="54.75" y1="119.799038105677" x2="54.4393398282202" y2="119.56066017178"/>
    <line x1="54.4393398282202" y1="119.56066017178" x2="54.2009618943234" y2="119.25"/>
    <line x1="54.2009618943234" y1="119.25" x2="54.0511112605664" y2="118.888228567654"/>
    <line x1="54.0511112605664" y1="118.888228567654" x2="54.0" y2="118.5"/>
    <line x1="54.0" y1="118.5" x2="54.0511112605664" y2="118.111771432346"/>
    <line x1="54.0511112605664" y1="118.111771432346" x2="54.2009618943234" y2="117.75"/>
    <line x1="54.2009618943234" y1="117.75" x2="54.4393398282202" y2="117.43933982822"/>
    <line x1="54.4393398282202" y1="117.43933982822" x2="54.75" y2="117.200961894323"/>
    <line x1="54.75" y1="117.200961894323" x2="55.1117714323462" y2="117.051111260566"/>
    <line x1="55.1117714323462" y1="117.051111260566" x2="55.5" y2="117.0"/>
    <line x1="55.5" y1="117.0" x2="55.8882285676538" y2="117.051111260566"/>
    <line x1="55.8882285676538" y1="117.051111260566" x2="56.25" y2="117.200961894323"/>
    <line x1="56.25" y1="117.200961894323" x2="56.5606601717798" y2="117.43933982822"/>
    <line x1="56.5606601717798" y1="117.43933982822" x2="56.7990381056767" y2="117.75"/>
    <line x1="56.7990381056767" y1="117.75" x2="56.9488887394336" y2="118.111771432346"/>
    <line x1="56.9488887394336" y1="118.111771432346" x2="57.0" y2="118.5"/>
    <line x1="57.0" y1="118.5" x2="56.9488887394336" y2="118.888228567654"/>
    <line x1="56.9488887394336" y1="118.888228567654" x2="56.7990381056767" y2="119.25"/>
    <line x1="56.7990381056767" y1="119.25" x2="56.5606601717798" y2="119.56066017178"/>
    <line x1="56.5606601717798" y1="119.56066017178" x2="56.25" y2="119.799038105677"/>
    <line x1="56.25" y1="119.799038105677" x2="55.8882285676538" y2="119.948888739434"/>
    <line x1="23.0" y1="117.0" x2="43.0" y2="117.0"/>
    <line x1="43.0" y1="117.0" x2="43.0" y2="120.0"/>
    <line x1="43.0" y1="120.0" x2="23.0" y2="120.0"/>
    <line x1="23.0" y1="120.0" x2="23.0" y2="117.0"/>
    <line x1="68.0" y1="120.0" x2="68.0" y2="117.0"/>
    <line x1="68.0" y1="117.0" x2="88.0" y2="117.0"/>
    <line x1="88.0" y1="117.0" x2="88.0" y2="120.0"/>
    <line x1="88.0" y1="120.0" x2="68.0" y2="120.0"/>
  </g>
  <g id="face2" fill="none" stroke="rgb(0,0,255)" stroke-width="1" stroke-miterlimit="4" stroke-dasharray="none" stroke-linejoin="round" stroke-linecap="round">
    <line x1="13.0" y1="133.0" x2="13.0" y2="141.5"/>
    <line x1="13.0" y1="141.5" x2="15.0" y2="141.5"/>
    <line x1="15.0" y1="141.5" x2="15.0" y2="140.2"/>
    <line x1="15.0" y1="140.2" x2="17.2" y2="140.2"/>
    <line x1="17.2" y1="140.2" x2="17.2" y2="141.5"/>
    <line x1="17.2" y1="141.5" x2="20.2" y2="141.5"/>
    <line x1="20.2" y1="141.5" x2="20.2" y2="144.5"/>
    <line x1="20.2" y1="144.5" x2="17.2" y2="144.5"/>
    <line x1="17.2" y1="144.5" x2="17.2" y2="145.8"/>
    <line x1="17.2" y1="145.8" x2="15.0" y2="145.8"/>
    <line x1="15.0" y1="145.8" x2="15.0" y2="144.5"/>
    <line x1="15.0" y1="144.5" x2="13.0" y2="144.5"/>
    <line x1="13.0" y1="144.5" x2="13.0" y2="153.0"/>
    <line x1="13.0" y1="153.0" x2="10.0" y2="153.0"/>
    <line x1="10.0" y1="153.0" x2="10.0" y2="176.0"/>
    <line x1="10.0" y1="176.0" x2="13.0" y2="176.0"/>
    <line x1="13.0" y1="176.0" x2="13.0" y2="186.0"/>
    <line x1="13.0" y1="186.0" x2="43.0" y2="186.0"/>
    <line x1="43.0" y1="186.0" x2="43.0" y2="133.0"/>
    <line x1="43.0" y1="133.0" x2="13.0" y2="133.0"/>
    <line x1="23.0" y1="176.0" x2="23.0" y2="141.0"/>
    <line x1="23.0" y1="141.0" x2="38.0" y2="141.0"/>
    <line x1="38.0" y1="141.0" x2="38.0" y2="176.0"/>
    <line x1="38.0" y1="176.0" x2="23.0" y2="176.0"/>
    <line x1="28.0" y1="180.0" x2="28.0" y2="183.0"/>
    <line x1="28.0" y1="183.0" x2="18.0" y2="183.0"/>
    <line x1="18.0" y1="183.0" x2="18.0" y2="180.0"/>
    <line x1="18.0" y1="180.0" x2="28.0" y2="180.0"/>
    <line x1="33.0511112605664" y1="181.888228567654" x2="33.0" y2="181.5"/>
    <line x1="33.0" y1="181.5" x2="33.0511112605664" y2="181.111771432346"/>
    <line x1="33.0511112605664" y1="181.111771432346" x2="33.2009618943233" y2="180.75"/>
    <line x1="33.2009618943233" y1="180.75" x2="33.4393398282202" y2="180.43933982822"/>
    <line x1="33.4393398282202" y1="180.43933982822" x2="33.75" y2="180.200961894323"/>
    <line x1="33.75" y1="180.200961894323" x2="34.1117714323462" y2="180.051111260566"/>
    <line x1="34.1117714323462" y1="180.051111260566" x2="34.5" y2="180.0"/>
    <line x1="34.5" y1="180.0" x2="34.8882285676538" y2="180.051111260566"/>
    <line x1="34.8882285676538" y1="180.051111260566" x2="35.25" y2="180.200961894323"/>
    <line x1="35.25" y1="180.200961894323" x2="35.5606601717798" y2="180.43933982822"/>
    <line x1="35.5606601717798" y1="180.43933982822" x2="35.7990381056766" y2="180.75"/>
    <line x1="35.7990381056766" y1="180.75" x2="35.9488887394336" y2="181.111771432346"/>
    <line x1="35.9488887394336" y1="181.111771432346" x2="36.0" y2="181.5"/>
    <line x1="36.0" y1="181.5" x2="35.9488887394336" y2="181.888228567654"/>
    <line x1="35.9488887394336" y1="181.888228567654" x2="35.7990381056766" y2="182.25"/>
    <line x1="35.7990381056766" y1="182.25" x2="35.5606601717798" y2="182.56066017178"/>
    <line x1="35.5606601717798" y1="182.56066017178" x2="35.25" y2="182.799038105677"/>
    <line x1="35.25" y1="182.799038105677" x2="34.8882285676538" y2="182.948888739434"/>
    <line x1="34.8882285676538" y1="182.948888739434" x2="34.5" y2="183.0"/>
    <line x1="34.5" y1="183.0" x2="34.1117714323462" y2="182.948888739434"/>
    <line x1="34.1117714323462" y1="182.948888739434" x2="33.75" y2="182.799038105677"/>
    <line x1="33.75" y1="182.799038105677" x2="33.4393398282202" y2="182.56066017178"/>
    <line x1="33.4393398282202" y1="182.56066017178" x2="33.2009618943233" y2="182.25"/>
    <line x1="33.2009618943233" y1="182.25" x2="33.0511112605664" y2="181.888228567654"/>
  </g>
  <g id="face3" fill="none" stroke="rgb(0,0,255)" stroke-width="1" stroke-miterlimit="4" stroke-dasharray="none" stroke-linejoin="round" stroke-linecap="round">
    <line x1="107.0" y1="270.4" x2="107.0" y2="200.0"/>
    <line x1="107.0" y1="200.0" x2="105.0" y2="200.0"/>
    <line x1="105.0" y1="200.0" x2="105.0" y2="199.0"/>
    <line x1="105.0" y1="199.0" x2="107.0" y2="199.0"/>
    <line x1="107.0" y1="199.0" x2="107.0" y2="196.0"/>
    <line x1="107.0" y1="196.0" x2="10.0" y2="196.0"/>
    <line x1="10.0" y1="196.0" x2="10.0" y2="199.0"/>
    <line x1="10.0" y1="199.0" x2="12.0" y2="199.0"/>
    <line x1="12.0" y1="199.0" x2="12.0" y2="200.0"/>
    <line x1="12.0" y1="200.0" x2="10.0" y2="200.0"/>
    <line x1="10.0" y1="200.0" x2="10.0" y2="270.4"/>
    <line x1="10.0" y1="270.4" x2="107.0" y2="270.4"/>
    <line x1="36.4488887394336" y1="200.111771432346" x2="36.5" y2="200.5"/>
    <line x1="36.5" y1="200.5" x2="36.4488887394336" y2="200.888228567654"/>
    <line x1="36.4488887394336" y1="200.888228567654" x2="36.2990381056766" y2="201.25"/>
    <line x1="36.2990381056766" y1="201.25" x2="36.0606601717798" y2="201.56066017178"/>
    <line x1="36.0606601717798" y1="201.56066017178" x2="35.75" y2="201.799038105677"/>
    <line x1="35.75" y1="201.799038105677" x2="35.3882285676538" y2="201.948888739433"/>
    <line x1="35.3882285676538" y1="201.948888739433" x2="35.0" y2="202.0"/>
    <line x1="35.0" y1="202.0" x2="34.6117714323462" y2="201.948888739433"/>
    <line x1="34.6117714323462" y1="201.948888739433" x2="34.25" y2="201.799038105677"/>
    <line x1="34.25" y1="201.799038105677" x2="33.9393398282202" y2="201.56066017178"/>
    <line x1="33.9393398282202" y1="201.56066017178" x2="33.7009618943233" y2="201.25"/>
    <line x1="33.7009618943233" y1="201.25" x2="33.5511112605664" y2="200.888228567654"/>
    <line x1="33.5511112605664" y1="200.888228567654" x2="33.5" y2="200.5"/>
    <line x1="33.5" y1="200.5" x2="33.5511112605664" y2="200.111771432346"/>
    <line x1="33.5511112605664" y1="200.111771432346" x2="33.7009618943233" y2="199.75"/>
    <line x1="33.7009618943233" y1="199.75" x2="33.9393398282201" y2="199.43933982822"/>
    <line x1="33.9393398282201" y1="199.43933982822" x2="34.25" y2="199.200961894323"/>
    <line x1="34.25" y1="199.200961894323" x2="34.6117714323462" y2="199.051111260566"/>
    <line x1="34.6117714323462" y1="199.051111260566" x2="35.0" y2="199.0"/>
    <line x1="35.0" y1="199.0" x2="35.3882285676538" y2="199.051111260566"/>
    <line x1="35.3882285676538" y1="199.051111260566" x2="35.75" y2="199.200961894323"/>
    <line x1="35.75" y1="199.200961894323" x2="36.0606601717798" y2="199.43933982822"/>
    <line x1="36.0606601717798" y1="199.43933982822" x2="36.2990381056766" y2="199.75"/>
    <line x1="36.2990381056766" y1="199.75" x2="36.4488887394336" y2="200.111771432346"/>
    <line x1="80.5511112605664" y1="200.888228567654" x2="80.5" y2="200.5"/>
    <line x1="80.5" y1="200.5" x2="80.5511112605664" y2="200.111771432346"/>
    <line x1="80.5511112605664" y1="200.111771432346" x2="80.7009618943233" y2="199.75"/>
    <line x1="80.7009618943233" y1="199.75" x2="80.9393398282202" y2="199.43933982822"/>
    <line x1="80.9393398282202" y1="199.43933982822" x2="81.25" y2="199.200961894323"/>
    <line x1="81.25" y1="199.200961894323" x2="81.6117714323463" y2="199.051111260566"/>
    <line x1="81.6117714323463" y1="199.051111260566" x2="82.0" y2="199.0"/>
    <line x1="82.0" y1="199.0" x2="82.3882285676538" y2="199.051111260566"/>
    <line x1="82.3882285676538" y1="199.051111260566" x2="82.75" y2="199.200961894323"/>
    <line x1="82.75" y1="199.200961894323" x2="83.0606601717798" y2="199.43933982822"/>
    <line x1="83.0606601717798" y1="199.43933982822" x2="83.2990381056766" y2="199.75"/>
    <line x1="83.2990381056766" y1="199.75" x2="83.4488887394336" y2="200.111771432346"/>
    <line x1="83.4488887394336" y1="200.111771432346" x2="83.5" y2="200.5"/>
    <line x1="83.5" y1="200.5" x2="83.4488887394336" y2="200.888228567654"/>
    <line x1="83.4488887394336" y1="200.888228567654" x2="83.2990381056766" y2="201.25"/>
    <line x1="83.2990381056766" y1="201.25" x2="83.0606601717798" y2="201.56066017178"/>
    <line x1="83.0606601717798" y1="201.56066017178" x2="82.75" y2="201.799038105677"/>
    <line x1="82.75" y1="201.799038105677" x2="82.3882285676538" y2="201.948888739433"/>
    <line x1="82.3882285676538" y1="201.948888739433" x2="82.0" y2="202.0"/>
    <line x1="82.0" y1="202.0" x2="81.6117714323463" y2="201.948888739433"/>
    <line x1="81.6117714323463" y1="201.948888739433" x2="81.25" y2="201.799038105677"/>
    <line x1="81.25" y1="201.799038105677" x2="80.9393398282202" y2="201.56066017178"/>
    <line x1="80.9393398282202" y1="201.56066017178" x2="80.7009618943234" y2="201.25"/>
    <line x1="80.7009618943234" y1="201.25" x2="80.5511112605664" y2="200.888228567654"/>
    <line x1="45.0" y1="202.0" x2="45.0" y2="199.0"/>
    <line x1="45.0" y1="199.0" x2="72.0" y2="199.0"/>
    <line x1="72.0" y1="199.0" x2="72.0" y2="202.0"/>
    <line x1="72.0" y1="202.0" x2="45.0" y2="202.0"/>
    <line x1="81.0" y1="267.4" x2="36.0" y2="267.4"/>
    <line x1="36.0" y1="267.4" x2="36.0" y2="264.4"/>
    <line x1="36.0" y1="264.4" x2="81.0" y2="264.4"/>
    <line x1="81.0" y1="264.4" x2="81.0" y2="267.4"/>
    <line x1="89.5511112605664" y1="266.288228567654" x2="89.5" y2="265.9"/>
    <line x1="89.5" y1="265.9" x2="89.5511112605664" y2="265.511771432346"/>
    <line x1="89.5511112605664" y1="265.511771432346" x2="89.7009618943233" y2="265.15"/>
    <line x1="89.7009618943233" y1="265.15" x2="89.9393398282202" y2="264.83933982822"/>
    <line x1="89.9393398282202" y1="264.83933982822" x2="90.25" y2="264.600961894323"/>
    <line x1="90.25" y1="264.600961894323" x2="90.6117714323462" y2="264.451111260566"/>
    <line x1="90.6117714323462" y1="264.451111260566" x2="91.0" y2="264.4"/>
    <line x1="91.0" y1="264.4" x2="91.3882285676538" y2="264.451111260566"/>
    <line x1="91.3882285676538" y1="264.451111260566" x2="91.75" y2="264.600961894323"/>
    <line x1="91.75" y1="264.600961894323" x2="92.0606601717798" y2="264.83933982822"/>
    <line x1="92.0606601717798" y1="264.83933982822" x2="92.2990381056767" y2="265.15"/>
    <line x1="92.2990381056767" y1="265.15" x2="92.4488887394336" y2="265.511771432346"/>
    <line x1="92.4488887394336" y1="265.511771432346" x2="92.5" y2="265.9"/>
    <line x1="92.5" y1="265.9" x2="92.4488887394336" y2="266.288228567654"/>
    <line x1="92.4488887394336" y1="266.288228567654" x2="92.2990381056767" y2="266.65"/>
    <line x1="92.2990381056767" y1="266.65" x2="92.0606601717798" y2="266.96066017178"/>
    <line x1="92.0606601717798" y1="266.96066017178" x2="91.75" y2="267.199038105677"/>
    <line x1="91.75" y1="267.199038105677" x2="91.3882285676538" y2="267.348888739434"/>
    <line x1="91.3882285676538" y1="267.348888739434" x2="91.0" y2="267.4"/>
    <line x1="91.0" y1="267.4" x2="90.6117714323462" y2="267.348888739434"/>
    <line x1="90.6117714323462" y1="267.348888739434" x2="90.25" y2="267.199038105677"/>
    <line x1="90.25" y1="267.199038105677" x2="89.9393398282202" y2="266.96066017178"/>
    <line x1="89.9393398282202" y1="266.96066017178" x2="89.7009618943233" y2="266.65"/>
    <line x1="89.7009618943233" y1="266.65" x2="89.5511112605664" y2="266.288228567654"/>
    <line x1="27.4488887394336" y1="265.511771432346" x2="27.5" y2="265.9"/>
    <line x1="27.5" y1="265.9" x2="27.4488887394336" y2="266.288228567654"/>
    <line x1="27.4488887394336" y1="266.288228567654" x2="27.2990381056767" y2="266.65"/>
    <line x1="27.2990381056767" y1="266.65" x2="27.0606601717798" y2="266.96066017178"/>
    <line x1="27.0606601717798" y1="266.96066017178" x2="26.75" y2="267.199038105677"/>
    <line x1="26.75" y1="267.199038105677" x2="26.3882285676538" y2="267.348888739433"/>
    <line x1="26.3882285676538" y1="267.348888739433" x2="26.0" y2="267.4"/>
    <line x1="26.0" y1="267.4" x2="25.6117714323462" y2="267.348888739434"/>
    <line x1="25.6117714323462" y1="267.348888739434" x2="25.25" y2="267.199038105676"/>
    <line x1="25.25" y1="267.199038105676" x2="24.9393398282202" y2="266.96066017178"/>
    <line x1="24.9393398282202" y1="266.96066017178" x2="24.7009618943234" y2="266.65"/>
    <line x1="24.7009618943234" y1="266.65" x2="24.5511112605664" y2="266.288228567654"/>
    <line x1="24.5511112605664" y1="266.288228567654" x2="24.5" y2="265.9"/>
    <line x1="24.5" y1="265.9" x2="24.5511112605664" y2="265.511771432346"/>
    <line x1="24.5511112605664" y1="265.511771432346" x2="24.7009618943234" y2="265.15"/>
    <line x1="24.7009618943234" y1="265.15" x2="24.9393398282202" y2="264.83933982822"/>
    <line x1="24.9393398282202" y1="264.83933982822" x2="25.25" y2="264.600961894323"/>
    <line x1="25.25" y1="264.600961894323" x2="25.6117714323462" y2="264.451111260566"/>
    <line x1="25.6117714323462" y1="264.451111260566" x2="26.0" y2="264.4"/>
    <line x1="26.0" y1="264.4" x2="26.3882285676538" y2="264.451111260566"/>
    <line x1="26.3882285676538" y1="264.451111260566" x2="26.75" y2="264.600961894323"/>
    <line x1="26.75" y1="264.600961894323" x2="27.0606601717798" y2="264.83933982822"/>
    <line x1="27.0606601717798" y1="264.83933982822" x2="27.2990381056767" y2="265.15"/>
    <line x1="27.2990381056767" y1="265.15" x2="27.4488887394336" y2="265.511771432346"/>
    <line x1="16.0" y1="260.4" x2="13.0" y2="260.4"/>
    <line x1="13.0" y1="260.4" x2="13.0" y2="237.4"/>
    <line x1="13.0" y1="237.4" x2="16.0" y2="237.4"/>
    <line x1="16.0" y1="237.4" x2="16.0" y2="260.4"/>
    <line x1="14.8882285676538" y1="228.848888739434" x2="14.5" y2="228.9"/>
    <line x1="14.5" y1="228.9" x2="14.1117714323462" y2="228.848888739434"/>
    <line x1="14.1117714323462" y1="228.848888739434" x2="13.75" y2="228.699038105677"/>
    <line x1="13.75" y1="228.699038105677" x2="13.4393398282202" y2="228.46066017178"/>
    <line x1="13.4393398282202" y1="228.46066017178" x2="13.2009618943234" y2="228.15"/>
    <line x1="13.2009618943234" y1="228.15" x2="13.0511112605664" y2="227.788228567654"/>
    <line x1="13.0511112605664" y1="227.788228567654" x2="13.0" y2="227.4"/>
    <line x1="13.0" y1="227.4" x2="13.0511112605664" y2="227.011771432346"/>
    <line x1="13.0511112605664" y1="227.011771432346" x2="13.2009618943234" y2="226.65"/>
    <line x1="13.2009618943234" y1="226.65" x2="13.4393398282202" y2="226.33933982822"/>
    <line x1="13.4393398282202" y1="226.33933982822" x2="13.75" y2="226.100961894323"/>
    <line x1="13.75" y1="226.100961894323" x2="14.1117714323462" y2="225.951111260566"/>
    <line x1="14.1117714323462" y1="225.951111260566" x2="14.5" y2="225.9"/>
    <line x1="14.5" y1="225.9" x2="14.8882285676538" y2="225.951111260566"/>
    <line x1="14.8882285676538" y1="225.951111260566" x2="15.25" y2="226.100961894323"/>
    <line x1="15.25" y1="226.100961894323" x2="15.5606601717798" y2="226.33933982822"/>
    <line x1="15.5606601717798" y1="226.33933982822" x2="15.7990381056766" y2="226.65"/>
    <line x1="15.7990381056766" y1="226.65" x2="15.9488887394336" y2="227.011771432346"/>
    <line x1="15.9488887394336" y1="227.011771432346" x2="16.0" y2="227.4"/>
    <line x1="16.0" y1="227.4" x2="15.9488887394336" y2="227.788228567654"/>
    <line x1="15.9488887394336" y1="227.788228567654" x2="15.7990381056767" y2="228.15"/>
    <line x1="15.7990381056767" y1="228.15" x2="15.5606601717798" y2="228.46066017178"/>
    <line x1="15.5606601717798" y1="228.46066017178" x2="15.25" y2="228.699038105677"/>
    <line x1="15.25" y1="228.699038105677" x2="14.8882285676538" y2="228.848888739434"/>
    <line x1="104.0" y1="260.4" x2="101.0" y2="260.4"/>
    <line x1="101.0" y1="260.4" x2="101.0" y2="237.4"/>
    <line x1="101.0" y1="237.4" x2="104.0" y2="237.4"/>
    <line x1="104.0" y1="237.4" x2="104.0" y2="260.4"/>
    <line x1="102.888228567654" y1="228.848888739434" x2="102.5" y2="228.9"/>
    <line x1="102.5" y1="228.9" x2="102.111771432346" y2="228.848888739434"/>
    <line x1="102.111771432346" y1="228.848888739434" x2="101.75" y2="228.699038105677"/>
    <line x1="101.75" y1="228.699038105677" x2="101.43933982822" y2="228.46066017178"/>
    <line x1="101.43933982822" y1="228.46066017178" x2="101.200961894323" y2="228.15"/>
    <line x1="101.200961894323" y1="228.15" x2="101.051111260566" y2="227.788228567654"/>
    <line x1="101.051111260566" y1="227.788228567654" x2="101.0" y2="227.4"/>
    <line x1="101.0" y1="227.4" x2="101.051111260566" y2="227.011771432346"/>
    <line x1="101.051111260566" y1="227.011771432346" x2="101.200961894323" y2="226.65"/>
    <line x1="101.200961894323" y1="226.65" x2="101.43933982822" y2="226.33933982822"/>
    <line x1="101.43933982822" y1="226.33933982822" x2="101.75" y2="226.100961894323"/>
    <line x1="101.75" y1="226.100961894323" x2="102.111771432346" y2="225.951111260566"/>
    <line x1="102.111771432346" y1="225.951111260566" x2="102.5" y2="225.9"/>
    <line x1="102.5" y1="225.9" x2="102.888228567654" y2="225.951111260566"/>
    <line x1="102.888228567654" y1="225.951111260566" x2="103.25" y2="226.100961894323"/>
    <line x1="103.25" y1="226.100961894323" x2="103.56066017178" y2="226.33933982822"/>
    <line x1="103.56066017178" y1="226.33933982822" x2="103.799038105677" y2="226.65"/>
    <line x1="103.799038105677" y1="226.65" x2="103.948888739434" y2="227.011771432346"/>
    <line x1="103.948888739434" y1="227.011771432346" x2="104.0" y2="227.4"/>
    <line x1="104.0" y1="227.4" x2="103.948888739434" y2="227.788228567654"/>
    <line x1="103.948888739434" y1="227.788228567654" x2="103.799038105677" y2="228.15"/>
    <line x1="103.799038105677" y1="228.15" x2="103.56066017178" y2="228.46066017178"/>
    <line x1="103.56066017178" y1="228.46066017178" x2="103.25" y2="228.699038105677"/>
    <line x1="103.25" y1="228.699038105677" x2="102.888228567654" y2="228.848888739434"/>
    <line x1="94.5" y1="207.0" x2="94.4488887394336" y2="207.388228567654"/>
    <line x1="94.4488887394336" y1="207.388228567654" x2="94.2990381056767" y2="207.75"/>
    <line x1="94.2990381056767" y1="207.75" x2="94.0606601717799" y2="208.06066017178"/>
    <line x1="94.0606601717799" y1="208.06066017178" x2="93.7500000000001" y2="208.299038105676"/>
    <line x1="93.7500000000001" y1="208.299038105676" x2="93.3882285676538" y2="208.448888739433"/>
    <line x1="93.3882285676538" y1="208.448888739433" x2="93.0" y2="208.5"/>
    <line x1="93.0" y1="208.5" x2="92.6117714323463" y2="208.448888739433"/>
    <line x1="92.6117714323463" y1="208.448888739433" x2="92.25" y2="208.299038105676"/>
    <line x1="92.25" y1="208.299038105676" x2="91.9393398282202" y2="208.06066017178"/>
    <line x1="91.9393398282202" y1="208.06066017178" x2="91.7009618943234" y2="207.75"/>
    <line x1="91.7009618943234" y1="207.75" x2="91.5511112605664" y2="207.388228567654"/>
    <line x1="91.5511112605664" y1="207.388228567654" x2="91.5000000000001" y2="207.0"/>
    <line x1="91.5000000000001" y1="207.0" x2="91.5511112605664" y2="206.611771432346"/>
    <line x1="91.5511112605664" y1="206.611771432346" x2="91.7009618943234" y2="206.25"/>
    <line x1="91.7009618943234" y1="206.25" x2="91.9393398282202" y2="205.93933982822"/>
    <line x1="91.9393398282202" y1="205.93933982822" x2="92.25" y2="205.700961894323"/>
    <line x1="92.25" y1="205.700961894323" x2="92.6117714323463" y2="205.551111260566"/>
    <line x1="92.6117714323463" y1="205.551111260566" x2="93.0000000000001" y2="205.5"/>
    <line x1="93.0000000000001" y1="205.5" x2="93.3882285676538" y2="205.551111260566"/>
    <line x1="93.3882285676538" y1="205.551111260566" x2="93.7500000000001" y2="205.700961894323"/>
    <line x1="93.7500000000001" y1="205.700961894323" x2="94.0606601717799" y2="205.93933982822"/>
    <line x1="94.0606601717799" y1="205.93933982822" x2="94.2990381056767" y2="206.25"/>
    <line x1="94.2990381056767" y1="206.25" x2="94.4488887394336" y2="206.611771432346"/>
    <line x1="94.4488887394336" y1="206.611771432346" x2="94.5" y2="207.0"/>
    <line x1="91.5511112605665" y1="251.011771432346" x2="91.7009618943234" y2="250.65"/>
    <line x1="91.7009618943234" y1="250.65" x2="91.9393398282202" y2="250.33933982822"/>
    <line x1="91.9393398282202" y1="250.33933982822" x2="92.25" y2="250.100961894323"/>
    <line x1="92.25" y1="250.100961894323" x2="92.6117714323462" y2="249.951111260566"/>
    <line x1="92.6117714323462" y1="249.951111260566" x2="93.0" y2="249.9"/>
    <line x1="93.0" y1="249.9" x2="93.3882285676538" y2="249.951111260566"/>
    <line x1="93.3882285676538" y1="249.951111260566" x2="93.75" y2="250.100961894323"/>
    <line x1="93.75" y1="250.100961894323" x2="94.0606601717798" y2="250.33933982822"/>
    <line x1="94.0606601717798" y1="250.33933982822" x2="94.2990381056766" y2="250.65"/>
    <line x1="94.2990381056766" y1="250.65" x2="94.4488887394336" y2="251.011771432346"/>
    <line x1="94.4488887394336" y1="251.011771432346" x2="94.5" y2="251.4"/>
    <line x1="94.5" y1="251.4" x2="94.4488887394336" y2="251.788228567654"/>
    <line x1="94.4488887394336" y1="251.788228567654" x2="94.2990381056767" y2="252.15"/>
    <line x1="94.2990381056767" y1="252.15" x2="94.0606601717798" y2="252.46066017178"/>
    <line x1="94.0606601717798" y1="252.46066017178" x2="93.75" y2="252.699038105676"/>
    <line x1="93.75" y1="252.699038105676" x2="93.3882285676538" y2="252.848888739433"/>
    <line x1="93.3882285676538" y1="252.848888739433" x2="93.0000000000001" y2="252.9"/>
    <line x1="93.0000000000001" y1="252.9" x2="92.6117714323463" y2="252.848888739433"/>
    <line x1="92.6117714323463" y1="252.848888739433" x2="92.2500000000001" y2="252.699038105677"/>
    <line x1="92.2500000000001" y1="252.699038105677" x2="91.9393398282203" y2="252.46066017178"/>
    <line x1="91.9393398282203" y1="252.46066017178" x2="91.7009618943235" y2="252.15"/>
    <line x1="91.7009618943235" y1="252.15" x2="91.5511112605665" y2="251.788228567654"/>
    <line x1="91.5511112605665" y1="251.788228567654" x2="91.5000000000001" y2="251.4"/>
    <line x1="91.5000000000001" y1="251.4" x2="91.5511112605665" y2="251.011771432346"/>
    <line x1="25.4488887394336" y1="207.388228567654" x2="25.2990381056767" y2="207.75"/>
    <line x1="25.2990381056767" y1="207.75" x2="25.0606601717798" y2="208.06066017178"/>
    <line x1="25.0606601717798" y1="208.06066017178" x2="24.75" y2="208.299038105677"/>
    <line x1="24.75" y1="208.299038105677" x2="24.3882285676537" y2="208.448888739433"/>
    <line x1="24.3882285676537" y1="208.448888739433" x2="24.0" y2="208.5"/>
    <line x1="24.0" y1="208.5" x2="23.6117714323462" y2="208.448888739433"/>
    <line x1="23.6117714323462" y1="208.448888739433" x2="23.25" y2="208.299038105676"/>
    <line x1="23.25" y1="208.299038105676" x2="22.9393398282201" y2="208.06066017178"/>
    <line x1="22.9393398282201" y1="208.06066017178" x2="22.7009618943233" y2="207.75"/>
    <line x1="22.7009618943233" y1="207.75" x2="22.5511112605664" y2="207.388228567654"/>
    <line x1="22.5511112605664" y1="207.388228567654" x2="22.5" y2="207.0"/>
    <line x1="22.5" y1="207.0" x2="22.5511112605664" y2="206.611771432346"/>
    <line x1="22.5511112605664" y1="206.611771432346" x2="22.7009618943233" y2="206.25"/>
    <line x1="22.7009618943233" y1="206.25" x2="22.9393398282202" y2="205.93933982822"/>
    <line x1="22.9393398282202" y1="205.93933982822" x2="23.25" y2="205.700961894323"/>
    <line x1="23.25" y1="205.700961894323" x2="23.6117714323462" y2="205.551111260566"/>
    <line x1="23.6117714323462" y1="205.551111260566" x2="24.0" y2="205.5"/>
    <line x1="24.0" y1="205.5" x2="24.3882285676538" y2="205.551111260566"/>
    <line x1="24.3882285676538" y1="205.551111260566" x2="24.75" y2="205.700961894323"/>
    <line x1="24.75" y1="205.700961894323" x2="25.0606601717798" y2="205.93933982822"/>
    <line x1="25.0606601717798" y1="205.93933982822" x2="25.2990381056767" y2="206.25"/>
    <line x1="25.2990381056767" y1="206.25" x2="25.4488887394336" y2="206.611771432346"/>
    <line x1="25.4488887394336" y1="206.611771432346" x2="25.5" y2="207.0"/>
    <line x1="25.5" y1="207.0" x2="25.4488887394336" y2="207.388228567654"/>
    <line x1="22.7009618943233" y1="252.15" x2="22.5511112605664" y2="251.788228567654"/>
    <line x1="22.5511112605664" y1="251.788228567654" x2="22.5" y2="251.4"/>
    <line x1="22.5" y1="251.4" x2="22.5511112605664" y2="251.011771432346"/>
    <line x1="22.5511112605664" y1="251.011771432346" x2="22.7009618943233" y2="250.65"/>
    <line x1="22.7009618943233" y1="250.65" x2="22.9393398282202" y2="250.33933982822"/>
    <line x1="22.9393398282202" y1="250.33933982822" x2="23.25" y2="250.100961894323"/>
    <line x1="23.25" y1="250.100961894323" x2="23.6117714323462" y2="249.951111260566"/>
    <line x1="23.6117714323462" y1="249.951111260566" x2="24.0" y2="249.9"/>
    <line x1="24.0" y1="249.9" x2="24.3882285676538" y2="249.951111260566"/>
    <line x1="24.3882285676538" y1="249.951111260566" x2="24.75" y2="250.100961894323"/>
    <line x1="24.75" y1="250.100961894323" x2="25.0606601717798" y2="250.33933982822"/>
    <line x1="25.0606601717798" y1="250.33933982822" x2="25.2990381056767" y2="250.65"/>
    <line x1="25.2990381056767" y1="250.65" x2="25.4488887394336" y2="251.011771432346"/>
    <line x1="25.4488887394336" y1="251.011771432346" x2="25.5" y2="251.4"/>
    <line x1="25.5" y1="251.4" x2="25.4488887394336" y2="251.788228567654"/>
    <line x1="25.4488887394336" y1="251.788228567654" x2="25.2990381056767" y2="252.15"/>
    <line x1="25.2990381056767" y1="252.15" x2="25.0606601717798" y2="252.46066017178"/>
    <line x1="25.0606601717798" y1="252.46066017178" x2="24.75" y2="252.699038105677"/>
    <line x1="24.75" y1="252.699038105677" x2="24.3882285676538" y2="252.848888739434"/>
    <line x1="24.3882285676538" y1="252.848888739434" x2="24.0" y2="252.9"/>
    <line x1="24.0" y1="252.9" x2="23.6117714323462" y2="252.848888739433"/>
    <line x1="23.6117714323462" y1="252.848888739433" x2="23.25" y2="252.699038105677"/>
    <line x1="23.25" y1="252.699038105677" x2="22.9393398282202" y2="252.46066017178"/>
    <line x1="22.9393398282202" y1="252.46066017178" x2="22.7009618943233" y2="252.15"/>
  </g>
  <g id="face4" fill="none" stroke="rgb(0,0,255)" stroke-width="1" stroke-miterlimit="4" stroke-dasharray="none" stroke-linejoin="round" stroke-linecap="round">
    <line x1="68.7874067294516" y1="301.4" x2="77.0" y2="301.4"/>
    <line x1="77.0" y1="301.4" x2="77.0" y2="280.4"/>
    <line x1="77.0" y1="280.4" x2="45.0" y2="280.4"/>
    <line x1="45.0" y1="280.4" x2="45.0" y2="282.4"/>
    <line x1="45.0" y1="282.4" x2="46.3" y2="282.4"/>
    <line x1="46.3" y1="282.4" x2="46.3" y2="284.6"/>
    <line x1="46.3" y1="284.6" x2="45.0" y2="284.6"/>
    <line x1="45.0" y1="284.6" x2="45.0" y2="294.6"/>
    <line x1="45.0" y1="294.6" x2="42.0" y2="294.6"/>
    <line x1="42.0" y1="294.6" x2="42.0" y2="284.6"/>
    <line x1="42.0" y1="284.6" x2="40.7" y2="284.6"/>
    <line x1="40.7" y1="284.6" x2="40.7" y2="282.4"/>
    <line x1="40.7" y1="282.4" x2="42.0" y2="282.4"/>
    <line x1="42.0" y1="282.4" x2="42.0" y2="280.4"/>
    <line x1="42.0" y1="280.4" x2="10.0" y2="280.4"/>
    <line x1="10.0" y1="280.4" x2="10.0" y2="301.4"/>
    <line x1="10.0" y1="301.4" x2="18.2125932705484" y2="301.4"/>
    <line x1="18.2125932705484" y1="301.4" x2="18.2125932705484" y2="299.4"/>
    <line x1="18.2125932705484" y1="299.4" x2="16.9125932705484" y2="299.4"/>
    <line x1="16.9125932705484" y1="299.4" x2="16.9125932705484" y2="297.2"/>
    <line x1="16.9125932705484" y1="297.2" x2="18.2125932705484" y2="297.2"/>
    <line x1="18.2125932705484" y1="297.2" x2="18.2125932705484" y2="294.2"/>
    <line x1="18.2125932705484" y1="294.2" x2="21.2125932705484" y2="294.2"/>
    <line x1="21.2125932705484" y1="294.2" x2="21.5" y2="297.18620116065"/>
    <line x1="21.5" y1="297.18620116065" x2="22.8" y2="297.18620116065"/>
    <line x1="22.8" y1="297.18620116065" x2="22.8" y2="299.38620116065"/>
    <line x1="22.8" y1="299.38620116065" x2="21.5" y2="299.38620116065"/>
    <line x1="21.5" y1="299.38620116065" x2="21.5" y2="301.4"/>
    <line x1="21.5" y1="301.4" x2="30.0" y2="301.4"/>
    <line x1="30.0" y1="301.4" x2="30.0" y2="304.4"/>
    <line x1="30.0" y1="304.4" x2="57.0" y2="304.4"/>
    <line x1="57.0" y1="304.4" x2="57.0" y2="301.4"/>
    <line x1="57.0" y1="301.4" x2="65.5" y2="301.4"/>
    <line x1="65.5" y1="301.4" x2="65.5" y2="299.4"/>
    <line x1="65.5" y1="299.4" x2="64.2" y2="299.4"/>
    <line x1="64.2" y1="299.4" x2="64.2" y2="297.2"/>
    <line x1="64.2" y1="297.2" x2="65.5" y2="297.2"/>
    <line x1="65.5" y1="297.2" x2="65.5" y2="294.2"/>
    <line x1="65.5" y1="294.2" x2="68.5" y2="294.2"/>
    <line x1="68.5" y1="294.2" x2="68.7874067294516" y2="297.18620116065"/>
    <line x1="68.7874067294516" y1="297.18620116065" x2="70.0874067294516" y2="297.18620116065"/>
    <line x1="70.0874067294516" y1="297.18620116065" x2="70.0874067294516" y2="299.38620116065"/>
    <line x1="70.0874067294516" y1="299.38620116065" x2="68.7874067294516" y2="299.38620116065"/>
    <line x1="68.7874067294516" y1="299.38620116065" x2="68.7874067294516" y2="301.4"/>
  </g>
  <g id="face5" fill="none" stroke="rgb(0,0,255)" stroke-width="1" stroke-miterlimit="4" stroke-dasharray="none" stroke-linejoin="round" stroke-linecap="round">
    <line x1="62.7" y1="350.9" x2="51.5" y2="350.9"/>
    <line x1="51.5" y1="350.9" x2="49.5" y2="355.9"/>
    <line x1="49.5" y1="355.9" x2="49.5" y2="364.8"/>
    <line x1="49.5" y1="364.8" x2="85.0" y2="364.8"/>
    <line x1="85.0" y1="364.8" x2="85.0" y2="314.4"/>
    <line x1="85.0" y1="314.4" x2="10.0" y2="314.4"/>
    <line x1="10.0" y1="314.4" x2="10.0" y2="364.8"/>
    <line x1="10.0" y1="364.8" x2="45.5" y2="364.8"/>
    <line x1="45.5" y1="364.8" x2="45.5" y2="355.9"/>
    <line x1="45.5" y1="355.9" x2="43.5" y2="350.9"/>
    <line x1="43.5" y1="350.9" x2="32.3" y2="350.9"/>
    <line x1="32.3" y1="350.9" x2="32.3" y2="323.9"/>
    <line x1="32.3" y1="323.9" x2="62.7" y2="323.9"/>
    <line x1="62.7" y1="323.9" x2="62.7" y2="350.9"/>
    <line x1="82.0000000000001" y1="360.3" x2="82.3882285676538" y2="360.351111260566"/>
    <line x1="82.3882285676538" y1="360.351111260566" x2="82.7500000000001" y2="360.500961894323"/>
    <line x1="82.7500000000001" y1="360.500961894323" x2="83.0606601717798" y2="360.73933982822"/>
    <line x1="83.0606601717798" y1="360.73933982822" x2="83.2990381056766" y2="361.05"/>
    <line x1="83.2990381056766" y1="361.05" x2="83.4488887394336" y2="361.411771432346"/>
    <line x1="83.4488887394336" y1="361.411771432346" x2="83.5" y2="361.8"/>
    <line x1="83.5" y1="361.8" x2="83.4488887394336" y2="362.188228567654"/>
    <line x1="83.4488887394336" y1="362.188228567654" x2="83.2990381056766" y2="362.55"/>
    <line x1="83.2990381056766" y1="362.55" x2="83.0606601717799" y2="362.86066017178"/>
    <line x1="83.0606601717799" y1="362.86066017178" x2="82.7500000000001" y2="363.099038105677"/>
    <line x1="82.7500000000001" y1="363.099038105677" x2="82.3882285676538" y2="363.248888739434"/>
    <line x1="82.3882285676538" y1="363.248888739434" x2="82.0000000000001" y2="363.3"/>
    <line x1="82.0000000000001" y1="363.3" x2="81.6117714323462" y2="363.248888739434"/>
    <line x1="81.6117714323462" y1="363.248888739434" x2="81.25" y2="363.099038105677"/>
    <line x1="81.25" y1="363.099038105677" x2="80.9393398282202" y2="362.86066017178"/>
    <line x1="80.9393398282202" y1="362.86066017178" x2="80.7009618943234" y2="362.55"/>
    <line x1="80.7009618943234" y1="362.55" x2="80.5511112605664" y2="362.188228567654"/>
    <line x1="80.5511112605664" y1="362.188228567654" x2="80.5" y2="361.8"/>
    <line x1="80.5" y1="361.8" x2="80.5511112605664" y2="361.411771432346"/>
    <line x1="80.5511112605664" y1="361.411771432346" x2="80.7009618943234" y2="361.05"/>
    <line x1="80.7009618943234" y1="361.05" x2="80.9393398282202" y2="360.73933982822"/>
    <line x1="80.9393398282202" y1="360.73933982822" x2="81.25" y2="360.500961894323"/>
    <line x1="81.25" y1="360.500961894323" x2="81.6117714323462" y2="360.351111260566"/>
    <line x1="81.6117714323462" y1="360.351111260566" x2="82.0000000000001" y2="360.3"/>
    <line x1="82.3882285676538" y1="318.848888739434" x2="82.0000000000001" y2="318.9"/>
    <line x1="82.0000000000001" y1="318.9" x2="81.6117714323462" y2="318.848888739434"/>
    <line x1="81.6117714323462" y1="318.848888739434" x2="81.25" y2="318.699038105677"/>
    <line x1="81.25" y1="318.699038105677" x2="80.9393398282202" y2="318.46066017178"/>
    <line x1="80.9393398282202" y1="318.46066017178" x2="80.7009618943234" y2="318.15"/>
    <line x1="80.7009618943234" y1="318.15" x2="80.5511112605664" y2="317.788228567654"/>
    <line x1="80.5511112605664" y1="317.788228567654" x2="80.5" y2="317.4"/>
    <line x1="80.5" y1="317.4" x2="80.5511112605664" y2="317.011771432346"/>
    <line x1="80.5511112605664" y1="317.011771432346" x2="80.7009618943234" y2="316.65"/>
    <line x1="80.7009618943234" y1="316.65" x2="80.9393398282202" y2="316.33933982822"/>
    <line x1="80.9393398282202" y1="316.33933982822" x2="81.25" y2="316.100961894323"/>
    <line x1="81.25" y1="316.100961894323" x2="81.6117714323462" y2="315.951111260566"/>
    <line x1="81.6117714323462" y1="315.951111260566" x2="82.0000000000001" y2="315.9"/>
    <line x1="82.0000000000001" y1="315.9" x2="82.3882285676538" y2="315.951111260566"/>
    <line x1="82.3882285676538" y1="315.951111260566" x2="82.7500000000001" y2="316.100961894323"/>
    <line x1="82.7500000000001" y1="316.100961894323" x2="83.0606601717799" y2="316.33933982822"/>
    <line x1="83.0606601717799" y1="316.33933982822" x2="83.2990381056766" y2="316.65"/>
    <line x1="83.2990381056766" y1="316.65" x2="83.4488887394336" y2="317.011771432346"/>
    <line x1="83.4488887394336" y1="317.011771432346" x2="83.5" y2="317.4"/>
    <line x1="83.5" y1="317.4" x2="83.4488887394336" y2="317.788228567654"/>
    <line x1="83.4488887394336" y1="317.788228567654" x2="83.2990381056766" y2="318.15"/>
    <line x1="83.2990381056766" y1="318.15" x2="83.0606601717799" y2="318.46066017178"/>
    <line x1="83.0606601717799" y1="318.46066017178" x2="82.7500000000001" y2="318.699038105677"/>
    <line x1="82.7500000000001" y1="318.699038105677" x2="82.3882285676538" y2="318.848888739434"/>
    <line x1="13.3882285676538" y1="318.848888739434" x2="13.0" y2="318.9"/>
    <line x1="13.0" y1="318.9" x2="12.6117714323462" y2="318.848888739434"/>
    <line x1="12.6117714323462" y1="318.848888739434" x2="12.25" y2="318.699038105677"/>
    <line x1="12.25" y1="318.699038105677" x2="11.9393398282202" y2="318.46066017178"/>
    <line x1="11.9393398282202" y1="318.46066017178" x2="11.7009618943234" y2="318.15"/>
    <line x1="11.7009618943234" y1="318.15" x2="11.5511112605664" y2="317.788228567654"/>
    <line x1="11.5511112605664" y1="317.788228567654" x2="11.5" y2="317.4"/>
    <line x1="11.5" y1="317.4" x2="11.5511112605664" y2="317.011771432346"/>
    <line x1="11.5511112605664" y1="317.011771432346" x2="11.7009618943234" y2="316.65"/>
    <line x1="11.7009618943234" y1="316.65" x2="11.9393398282202" y2="316.33933982822"/>
    <line x1="11.9393398282202" y1="316.33933982822" x2="12.25" y2="316.100961894323"/>
    <line x1="12.25" y1="316.100961894323" x2="12.6117714323462" y2="315.951111260566"/>
    <line x1="12.6117714323462" y1="315.951111260566" x2="13.0" y2="315.9"/>
    <line x1="13.0" y1="315.9" x2="13.3882285676538" y2="315.951111260566"/>
    <line x1="13.3882285676538" y1="315.951111260566" x2="13.75" y2="316.100961894323"/>
    <line x1="13.75" y1="316.100961894323" x2="14.0606601717798" y2="316.33933982822"/>
    <line x1="14.0606601717798" y1="316.33933982822" x2="14.2990381056767" y2="316.65"/>
    <line x1="14.2990381056767" y1="316.65" x2="14.4488887394336" y2="317.011771432346"/>
    <line x1="14.4488887394336" y1="317.011771432346" x2="14.5" y2="317.4"/>
    <line x1="14.5" y1="317.4" x2="14.4488887394336" y2="317.788228567654"/>
    <line x1="14.4488887394336" y1="317.788228567654" x2="14.2990381056767" y2="318.15"/>
    <line x1="14.2990381056767" y1="318.15" x2="14.0606601717798" y2="318.46066017178"/>
    <line x1="14.0606601717798" y1="318.46066017178" x2="13.75" y2="318.699038105677"/>
    <line x1="13.75" y1="318.699038105677" x2="13.3882285676538" y2="318.848888739434"/>
    <line x1="14.0606601717798" y1="360.73933982822" x2="14.2990381056767" y2="361.05"/>
    <line x1="14.2990381056767" y1="361.05" x2="14.4488887394336" y2="361.411771432346"/>
    <line x1="14.4488887394336" y1="361.411771432346" x2="14.5" y2="361.8"/>
    <line x1="14.5" y1="361.8" x2="14.4488887394336" y2="362.188228567654"/>
    <line x1="14.4488887394336" y1="362.188228567654" x2="14.2990381056767" y2="362.55"/>
    <line x1="14.2990381056767" y1="362.55" x2="14.0606601717798" y2="362.86066017178"/>
    <line x1="14.0606601717798" y1="362.86066017178" x2="13.75" y2="363.099038105677"/>
    <line x1="13.75" y1="363.099038105677" x2="13.3882285676538" y2="363.248888739434"/>
    <line x1="13.3882285676538" y1="363.248888739434" x2="13.0" y2="363.3"/>
    <line x1="13.0" y1="363.3" x2="12.6117714323462" y2="363.248888739433"/>
    <line x1="12.6117714323462" y1="363.248888739433" x2="12.25" y2="363.099038105677"/>
    <line x1="12.25" y1="363.099038105677" x2="11.9393398282202" y2="362.86066017178"/>
    <line x1="11.9393398282202" y1="362.86066017178" x2="11.7009618943234" y2="362.55"/>
    <line x1="11.7009618943234" y1="362.55" x2="11.5511112605664" y2="362.188228567654"/>
    <line x1="11.5511112605664" y1="362.188228567654" x2="11.5" y2="361.8"/>
    <line x1="11.5" y1="361.8" x2="11.5511112605664" y2="361.411771432346"/>
    <line x1="11.5511112605664" y1="361.411771432346" x2="11.7009618943234" y2="361.05"/>
    <line x1="11.7009618943234" y1="361.05" x2="11.9393398282202" y2="360.73933982822"/>
    <line x1="11.9393398282202" y1="360.73933982822" x2="12.25" y2="360.500961894323"/>
    <line x1="12.25" y1="360.500961894323" x2="12.6117714323462" y2="360.351111260566"/>
    <line x1="12.6117714323462" y1="360.351111260566" x2="13.0" y2="360.3"/>
    <line x1="13.0" y1="360.3" x2="13.3882285676538" y2="360.351111260566"/>
    <line x1="13.3882285676538" y1="360.351111260566" x2="13.75" y2="360.500961894323"/>
    <line x1="13.75" y1="360.500961894323" x2="14.0606601717798" y2="360.73933982822"/>
  </g>
  <g id="face6" fill="none" stroke="rgb(0,0,255)" stroke-width="1" stroke-miterlimit="4" stroke-dasharray="none" stroke-linejoin="round" stroke-linecap="round">
    <line x1="40.0" y1="443.7" x2="51.0" y2="443.7"/>
    <line x1="51.0" y1="443.7" x2="51.0" y2="441.7"/>
    <line x1="51.0" y1="441.7" x2="49.7" y2="441.7"/>
    <line x1="49.7" y1="441.7" x2="49.7" y2="439.5"/>
    <line x1="49.7" y1="439.5" x2="51.0" y2="439.5"/>
    <line x1="51.0" y1="439.5" x2="51.0" y2="436.5"/>
    <line x1="51.0" y1="436.5" x2="54.0" y2="436.5"/>
    <line x1="54.0" y1="436.5" x2="54.0" y2="439.5"/>
    <line x1="54.0" y1="439.5" x2="55.3" y2="439.5"/>
    <line x1="55.3" y1="439.5" x2="55.3" y2="441.7"/>
    <line x1="55.3" y1="441.7" x2="54.0" y2="441.7"/>
    <line x1="54.0" y1="441.7" x2="54.0" y2="443.7"/>
    <line x1="54.0" y1="443.7" x2="65.0" y2="443.7"/>
    <line x1="65.0" y1="443.7" x2="65.0" y2="448.7"/>
    <line x1="65.0" y1="448.7" x2="85.0" y2="448.7"/>
    <line x1="85.0" y1="448.7" x2="85.0" y2="443.7"/>
    <line x1="85.0" y1="443.7" x2="95.0" y2="443.7"/>
    <line x1="95.0" y1="443.7" x2="95.0" y2="379.8"/>
    <line x1="95.0" y1="379.8" x2="93.0" y2="379.8"/>
    <line x1="93.0" y1="379.8" x2="93.0" y2="378.8"/>
    <line x1="93.0" y1="378.8" x2="95.0" y2="378.8"/>
    <line x1="95.0" y1="378.8" x2="95.0" y2="374.8"/>
    <line x1="95.0" y1="374.8" x2="10.0" y2="374.8"/>
    <line x1="10.0" y1="374.8" x2="10.0" y2="378.8"/>
    <line x1="10.0" y1="378.8" x2="12.0" y2="378.8"/>
    <line x1="12.0" y1="378.8" x2="12.0" y2="379.8"/>
    <line x1="12.0" y1="379.8" x2="10.0" y2="379.8"/>
    <line x1="10.0" y1="379.8" x2="10.0" y2="443.7"/>
    <line x1="10.0" y1="443.7" x2="20.0" y2="443.7"/>
    <line x1="20.0" y1="443.7" x2="20.0" y2="448.7"/>
    <line x1="20.0" y1="448.7" x2="40.0" y2="448.7"/>
    <line x1="40.0" y1="448.7" x2="40.0" y2="443.7"/>
    <line x1="52.1117714323462" y1="378.351111260566" x2="52.5" y2="378.3"/>
    <line x1="52.5" y1="378.3" x2="52.8882285676538" y2="378.351111260566"/>
    <line x1="52.8882285676538" y1="378.351111260566" x2="53.25" y2="378.500961894323"/>
    <line x1="53.25" y1="378.500961894323" x2="53.5606601717798" y2="378.73933982822"/>
    <line x1="53.5606601717798" y1="378.73933982822" x2="53.7990381056767" y2="379.05"/>
    <line x1="53.7990381056767" y1="379.05" x2="53.9488887394336" y2="379.411771432346"/>
    <line x1="53.9488887394336" y1="379.411771432346" x2="54.0" y2="379.8"/>
    <line x1="54.0" y1="379.8" x2="53.9488887394336" y2="380.188228567654"/>
    <line x1="53.9488887394336" y1="380.188228567654" x2="53.7990381056767" y2="380.55"/>
    <line x1="53.7990381056767" y1="380.55" x2="53.5606601717798" y2="380.86066017178"/>
    <line x1="53.5606601717798" y1="380.86066017178" x2="53.25" y2="381.099038105677"/>
    <line x1="53.25" y1="381.099038105677" x2="52.8882285676538" y2="381.248888739434"/>
    <line x1="52.8882285676538" y1="381.248888739434" x2="52.5" y2="381.3"/>
    <line x1="52.5" y1="381.3" x2="52.1117714323462" y2="381.248888739434"/>
    <line x1="52.1117714323462" y1="381.248888739434" x2="51.75" y2="381.099038105677"/>
    <line x1="51.75" y1="381.099038105677" x2="51.4393398282202" y2="380.86066017178"/>
    <line x1="51.4393398282202" y1="380.86066017178" x2="51.2009618943233" y2="380.55"/>
    <line x1="51.2009618943233" y1="380.55" x2="51.0511112605664" y2="380.188228567654"/>
    <line x1="51.0511112605664" y1="380.188228567654" x2="51.0" y2="379.8"/>
    <line x1="51.0" y1="379.8" x2="51.0511112605664" y2="379.411771432346"/>
    <line x1="51.0511112605664" y1="379.411771432346" x2="51.2009618943233" y2="379.05"/>
    <line x1="51.2009618943233" y1="379.05" x2="51.4393398282202" y2="378.73933982822"/>
    <line x1="51.4393398282202" y1="378.73933982822" x2="51.75" y2="378.500961894323"/>
    <line x1="51.75" y1="378.500961894323" x2="52.1117714323462" y2="378.351111260566"/>
    <line x1="38.0" y1="397.7" x2="67.0" y2="397.7"/>
    <line x1="67.0" y1="397.7" x2="67.0" y2="414.7"/>
    <line x1="67.0" y1="414.7" x2="38.0" y2="414.7"/>
    <line x1="38.0" y1="414.7" x2="38.0" y2="397.7"/>
  </g>
  <g id="face7" fill="none" stroke="rgb(0,0,255)" stroke-width="1" stroke-miterlimit="4" stroke-dasharray="none" stroke-linejoin="round" stroke-linecap="round">
    <line x1="10.0" y1="509.1" x2="84.9999999999999" y2="509.1"/>
    <line x1="84.9999999999999" y1="509.1" x2="84.9999999999999" y2="458.7"/>
    <line x1="84.9999999999999" y1="458.7" x2="10.0" y2="458.7"/>
    <line x1="10.0" y1="458.7" x2="10.0" y2="509.1"/>
    <line x1="14.0606601717798" y1="505.03933982822" x2="14.2990381056766" y2="505.35"/>
    <line x1="14.2990381056766" y1="505.35" x2="14.4488887394336" y2="505.711771432346"/>
    <line x1="14.4488887394336" y1="505.711771432346" x2="14.5" y2="506.1"/>
    <line x1="14.5" y1="506.1" x2="14.4488887394336" y2="506.488228567654"/>
    <line x1="14.4488887394336" y1="506.488228567654" x2="14.2990381056766" y2="506.85"/>
    <line x1="14.2990381056766" y1="506.85" x2="14.0606601717798" y2="507.16066017178"/>
    <line x1="14.0606601717798" y1="507.16066017178" x2="13.75" y2="507.399038105677"/>
    <line x1="13.75" y1="507.399038105677" x2="13.3882285676538" y2="507.548888739434"/>
    <line x1="13.3882285676538" y1="507.548888739434" x2="13.0" y2="507.6"/>
    <line x1="13.0" y1="507.6" x2="12.6117714323462" y2="507.548888739434"/>
    <line x1="12.6117714323462" y1="507.548888739434" x2="12.25" y2="507.399038105677"/>
    <line x1="12.25" y1="507.399038105677" x2="11.9393398282201" y2="507.16066017178"/>
    <line x1="11.9393398282201" y1="507.16066017178" x2="11.7009618943233" y2="506.85"/>
    <line x1="11.7009618943233" y1="506.85" x2="11.5511112605664" y2="506.488228567654"/>
    <line x1="11.5511112605664" y1="506.488228567654" x2="11.5" y2="506.1"/>
    <line x1="11.5" y1="506.1" x2="11.5511112605664" y2="505.711771432346"/>
    <line x1="11.5511112605664" y1="505.711771432346" x2="11.7009618943233" y2="505.35"/>
    <line x1="11.7009618943233" y1="505.35" x2="11.9393398282201" y2="505.03933982822"/>
    <line x1="11.9393398282201" y1="505.03933982822" x2="12.25" y2="504.800961894323"/>
    <line x1="12.25" y1="504.800961894323" x2="12.6117714323462" y2="504.651111260566"/>
    <line x1="12.6117714323462" y1="504.651111260566" x2="13.0" y2="504.6"/>
    <line x1="13.0" y1="504.6" x2="13.3882285676538" y2="504.651111260566"/>
    <line x1="13.3882285676538" y1="504.651111260566" x2="13.75" y2="504.800961894323"/>
    <line x1="13.75" y1="504.800961894323" x2="14.0606601717798" y2="505.03933982822"/>
    <line x1="13.3882285676538" y1="463.148888739434" x2="12.9999999999999" y2="463.2"/>
    <line x1="12.9999999999999" y1="463.2" x2="12.6117714323462" y2="463.148888739434"/>
    <line x1="12.6117714323462" y1="463.148888739434" x2="12.25" y2="462.999038105677"/>
    <line x1="12.25" y1="462.999038105677" x2="11.9393398282201" y2="462.76066017178"/>
    <line x1="11.9393398282201" y1="462.76066017178" x2="11.7009618943233" y2="462.45"/>
    <line x1="11.7009618943233" y1="462.45" x2="11.5511112605664" y2="462.088228567654"/>
    <line x1="11.5511112605664" y1="462.088228567654" x2="11.5" y2="461.7"/>
    <line x1="11.5" y1="461.7" x2="11.5511112605664" y2="461.311771432346"/>
    <line x1="11.5511112605664" y1="461.311771432346" x2="11.7009618943233" y2="460.95"/>
    <line x1="11.7009618943233" y1="460.95" x2="11.9393398282202" y2="460.63933982822"/>
    <line x1="11.9393398282202" y1="460.63933982822" x2="12.25" y2="460.400961894323"/>
    <line x1="12.25" y1="460.400961894323" x2="12.6117714323462" y2="460.251111260566"/>
    <line x1="12.6117714323462" y1="460.251111260566" x2="13.0" y2="460.2"/>
    <line x1="13.0" y1="460.2" x2="13.3882285676538" y2="460.251111260566"/>
    <line x1="13.3882285676538" y1="460.251111260566" x2="13.75" y2="460.400961894323"/>
    <line x1="13.75" y1="460.400961894323" x2="14.0606601717798" y2="460.63933982822"/>
    <line x1="14.0606601717798" y1="460.63933982822" x2="14.2990381056766" y2="460.95"/>
    <line x1="14.2990381056766" y1="460.95" x2="14.4488887394336" y2="461.311771432346"/>
    <line x1="14.4488887394336" y1="461.311771432346" x2="14.5" y2="461.7"/>
    <line x1="14.5" y1="461.7" x2="14.4488887394336" y2="462.088228567654"/>
    <line x1="14.4488887394336" y1="462.088228567654" x2="14.2990381056766" y2="462.45"/>
    <line x1="14.2990381056766" y1="462.45" x2="14.0606601717799" y2="462.76066017178"/>
    <line x1="14.0606601717799" y1="462.76066017178" x2="13.75" y2="462.999038105677"/>
    <line x1="13.75" y1="462.999038105677" x2="13.3882285676538" y2="463.148888739434"/>
    <line x1="82.3882285676538" y1="463.148888739434" x2="82.0000000000001" y2="463.2"/>
    <line x1="82.0000000000001" y1="463.2" x2="81.6117714323461" y2="463.148888739434"/>
    <line x1="81.6117714323461" y1="463.148888739434" x2="81.25" y2="462.999038105677"/>
    <line x1="81.25" y1="462.999038105677" x2="80.9393398282201" y2="462.76066017178"/>
    <line x1="80.9393398282201" y1="462.76066017178" x2="80.7009618943233" y2="462.45"/>
    <line x1="80.7009618943233" y1="462.45" x2="80.5511112605663" y2="462.088228567654"/>
    <line x1="80.5511112605663" y1="462.088228567654" x2="80.5" y2="461.7"/>
    <line x1="80.5" y1="461.7" x2="80.5511112605663" y2="461.311771432346"/>
    <line x1="80.5511112605663" y1="461.311771432346" x2="80.7009618943233" y2="460.95"/>
    <line x1="80.7009618943233" y1="460.95" x2="80.9393398282201" y2="460.63933982822"/>
    <line x1="80.9393398282201" y1="460.63933982822" x2="81.25" y2="460.400961894323"/>
    <line x1="81.25" y1="460.400961894323" x2="81.6117714323461" y2="460.251111260566"/>
    <line x1="81.6117714323461" y1="460.251111260566" x2="82.0" y2="460.2"/>
    <line x1="82.0" y1="460.2" x2="82.3882285676538" y2="460.251111260566"/>
    <line x1="82.3882285676538" y1="460.251111260566" x2="82.7500000000001" y2="460.400961894323"/>
    <line x1="82.7500000000001" y1="460.400961894323" x2="83.0606601717798" y2="460.63933982822"/>
    <line x1="83.0606601717798" y1="460.63933982822" x2="83.2990381056766" y2="460.95"/>
    <line x1="83.2990381056766" y1="460.95" x2="83.4488887394336" y2="461.311771432346"/>
    <line x1="83.4488887394336" y1="461.311771432346" x2="83.4999999999999" y2="461.7"/>
    <line x1="83.4999999999999" y1="461.7" x2="83.4488887394336" y2="462.088228567654"/>
    <line x1="83.4488887394336" y1="462.088228567654" x2="83.2990381056766" y2="462.45"/>
    <line x1="83.2990381056766" y1="462.45" x2="83.0606601717799" y2="462.76066017178"/>
    <line x1="83.0606601717799" y1="462.76066017178" x2="82.7500000000001" y2="462.999038105677"/>
    <line x1="82.7500000000001" y1="462.999038105677" x2="82.3882285676538" y2="463.148888739434"/>
    <line x1="82.0" y1="504.6" x2="82.3882285676538" y2="504.651111260566"/>
    <line x1="82.3882285676538" y1="504.651111260566" x2="82.7500000000001" y2="504.800961894323"/>
    <line x1="82.7500000000001" y1="504.800961894323" x2="83.0606601717798" y2="505.03933982822"/>
    <line x1="83.0606601717798" y1="505.03933982822" x2="83.2990381056766" y2="505.35"/>
    <line x1="83.2990381056766" y1="505.35" x2="83.4488887394336" y2="505.711771432346"/>
    <line x1="83.4488887394336" y1="505.711771432346" x2="83.4999999999999" y2="506.1"/>
    <line x1="83.4999999999999" y1="506.1" x2="83.4488887394336" y2="506.488228567654"/>
    <line x1="83.4488887394336" y1="506.488228567654" x2="83.2990381056766" y2="506.85"/>
    <line x1="83.2990381056766" y1="506.85" x2="83.0606601717798" y2="507.16066017178"/>
    <line x1="83.0606601717798" y1="507.16066017178" x2="82.7500000000001" y2="507.399038105677"/>
    <line x1="82.7500000000001" y1="507.399038105677" x2="82.3882285676538" y2="507.548888739434"/>
    <line x1="82.3882285676538" y1="507.548888739434" x2="82.0" y2="507.6"/>
    <line x1="82.0" y1="507.6" x2="81.6117714323461" y2="507.548888739434"/>
    <line x1="81.6117714323461" y1="507.548888739434" x2="81.25" y2="507.399038105676"/>
    <line x1="81.25" y1="507.399038105676" x2="80.9393398282201" y2="507.16066017178"/>
    <line x1="80.9393398282201" y1="507.16066017178" x2="80.7009618943233" y2="506.85"/>
    <line x1="80.7009618943233" y1="506.85" x2="80.5511112605663" y2="506.488228567654"/>
    <line x1="80.5511112605663" y1="506.488228567654" x2="80.5" y2="506.1"/>
    <line x1="80.5" y1="506.1" x2="80.5511112605663" y2="505.711771432346"/>
    <line x1="80.5511112605663" y1="505.711771432346" x2="80.7009618943233" y2="505.35"/>
    <line x1="80.7009618943233" y1="505.35" x2="80.9393398282201" y2="505.03933982822"/>
    <line x1="80.9393398282201" y1="505.03933982822" x2="81.25" y2="504.800961894323"/>
    <line x1="81.25" y1="504.800961894323" x2="81.6117714323462" y2="504.651111260567"/>
    <line x1="81.6117714323462" y1="504.651111260567" x2="82.0" y2="504.6"/>
    <line x1="62.6999999999999" y1="468.2" x2="62.6999999999999" y2="495.2"/>
    <line x1="62.6999999999999" y1="495.2" x2="32.3" y2="495.2"/>
    <line x1="32.3" y1="495.2" x2="32.3" y2="468.2"/>
    <line x1="32.3" y1="468.2" x2="62.6999999999999" y2="468.2"/>
  </g>
</svg>
