<?xml version="1.0" encoding="UTF-8" standalone="no"?>
<svg
   xmlns:dc="http://purl.org/dc/elements/1.1/"
   xmlns:cc="http://creativecommons.org/ns#"
   xmlns:rdf="http://www.w3.org/1999/02/22-rdf-syntax-ns#"
   xmlns:svg="http://www.w3.org/2000/svg"
   xmlns="http://www.w3.org/2000/svg"
   xmlns:sodipodi="http://sodipodi.sourceforge.net/DTD/sodipodi-0.dtd"
   xmlns:inkscape="http://www.inkscape.org/namespaces/inkscape"
   width="90.358208mm"
   height="516.31549mm"
   viewBox="0 0 90.358208 516.31549"
   version="1.1"
   id="svg2"
   inkscape:version="0.91 r13725"
   sodipodi:docname="setup.svg">
  <metadata
     id="metadata32">
    <rdf:RDF>
      <cc:Work
         rdf:about="">
        <dc:format>image/svg+xml</dc:format>
        <dc:type
           rdf:resource="http://purl.org/dc/dcmitype/StillImage" />
        <dc:title></dc:title>
      </cc:Work>
    </rdf:RDF>
  </metadata>
  <defs
     id="defs30" />
  <sodipodi:namedview
     pagecolor="#ffffff"
     bordercolor="#666666"
     borderopacity="1"
     objecttolerance="10"
     gridtolerance="10000"
     guidetolerance="10"
     inkscape:pageopacity="0"
     inkscape:pageshadow="2"
     inkscape:window-width="1057"
     inkscape:window-height="868"
     id="namedview28"
     showgrid="true"
     inkscape:zoom="0.48"
     inkscape:cx="12.222734"
     inkscape:cy="1314.7149"
     inkscape:window-x="378"
     inkscape:window-y="6"
     inkscape:window-maximized="0"
     inkscape:current-layer="svg2"
     fit-margin-top="0"
     fit-margin-left="0"
     fit-margin-right="0"
     fit-margin-bottom="0">
    <inkscape:grid
       type="xygrid"
       id="grid4545"
       originx="-0.90439197"
       originy="-878.37489" />
  </sodipodi:namedview>
  <desc
     id="desc4">Output from Flights of Ideas SVG Sketchup Plugin</desc>
  <path
     inkscape:connector-curvature="0"
     style="fill:none;stroke:#0000ff;stroke-width:1;stroke-linecap:round;stroke-linejoin:miter;stroke-miterlimit:4;stroke-dasharray:none"
     d="m 38.437077,38.333478 0,-6 -20,0 0,6 20,0"
     id="path4361" />
  <path
     inkscape:connector-curvature="0"
     style="fill:none;stroke:#0000ff;stroke-width:1;stroke-linecap:round;stroke-linejoin:miter;stroke-miterlimit:4;stroke-dasharray:none"
     d="m 23.437299,33.833482 -0.388607,0.05126 -0.361597,0.149931 -0.310886,0.238125 -0.238125,0.310885 -0.14993,0.361597 -0.05126,0.388056 0.05126,0.388607 0.14993,0.361597 0.238125,0.310334 0.310886,0.238677 0.361597,0.14993 0.388607,0.05126 0.388055,-0.05126 0.361597,-0.14993 0.310886,-0.238677 0.238125,-0.310334 0.14993,-0.361597 0.05126,-0.388607 -0.05126,-0.388056 -0.14993,-0.361597 -0.238125,-0.310885 -0.310886,-0.238125 -0.361597,-0.149931 -0.388055,-0.05126 z"
     id="path4359" />
  <path
     inkscape:connector-curvature="0"
     style="fill:none;stroke:#0000ff;stroke-width:1;stroke-linecap:round;stroke-linejoin:miter;stroke-miterlimit:4;stroke-dasharray:none"
     d="m 33.436895,33.833482 -0.388056,0.05126 -0.361597,0.149931 -0.310885,0.238125 -0.238125,0.310885 -0.149931,0.361597 -0.05126,0.388056 0.05126,0.388607 0.149931,0.361597 0.238125,0.310334 0.310885,0.238677 0.361597,0.14993 0.388056,0.05126 0.388606,-0.05126 0.361598,-0.14993 0.310885,-0.238677 0.238125,-0.310334 0.149931,-0.361597 0.05126,-0.388607 -0.05126,-0.388056 -0.149931,-0.361597 -0.238125,-0.310885 -0.310885,-0.238125 -0.361598,-0.149931 -0.388606,-0.05126 z"
     id="face0-cut" />
  <path
     style="fill:none;stroke:#0000ff;stroke-width:1;stroke-linecap:round;stroke-linejoin:miter;stroke-miterlimit:4;stroke-dasharray:none"
     d="m 24.535683,49.445051 -7,0 0,-3 -3,0 0,3 10,18 0,-3 3,0 0,-3 -3,0 0,-12"
     id="face1-cut"
     inkscape:connector-curvature="0" />
  <path
     inkscape:connector-curvature="0"
     style="fill:none;stroke:#0000ff;stroke-width:1;stroke-linecap:round;stroke-linejoin:miter;stroke-miterlimit:4;stroke-dasharray:none"
     d="m 17.939071,125.30726 0,51.00009 57.000067,0 0,-51.00009 -57.000067,0 z"
     id="path4375" />
  <path
     inkscape:connector-curvature="0"
     style="fill:none;stroke:#0000ff;stroke-width:1;stroke-linecap:round;stroke-linejoin:miter;stroke-miterlimit:4;stroke-dasharray:none"
     d="m 43.43884,128.30698 5.99998,0 0,3.00026 -5.99998,0 0,-3.00026 z"
     id="path4373" />
  <path
     inkscape:connector-curvature="0"
     style="fill:none;stroke:#0000ff;stroke-width:1;stroke-linecap:round;stroke-linejoin:miter;stroke-miterlimit:4;stroke-dasharray:none"
     d="m 20.938784,144.80705 3.000265,0 0,11.99996 -3.000265,0 0,-11.99996 z"
     id="path4371" />
  <path
     inkscape:connector-curvature="0"
     style="fill:none;stroke:#0000ff;stroke-width:1;stroke-linecap:round;stroke-linejoin:miter;stroke-miterlimit:4;stroke-dasharray:none"
     d="m 68.939162,144.80705 2.999712,0 0,11.99996 -2.999712,0 0,-11.99996 z"
     id="path4369" />
  <path
     inkscape:connector-curvature="0"
     style="fill:none;stroke:#0000ff;stroke-width:1;stroke-linecap:round;stroke-linejoin:miter;stroke-miterlimit:4;stroke-dasharray:none"
     d="m 46.439105,148.30727 -0.647127,0.0849 -0.60303,0.2497 -0.517589,0.39742 -0.397429,0.51815 -0.249698,0.60248 -0.08544,0.64712 0.08544,0.64713 0.249698,0.60303 0.397429,0.51759 0.517589,0.39743 0.60303,0.2497 0.647127,0.0854 0.647128,-0.0854 0.602476,-0.2497 0.518143,-0.39743 0.396875,-0.51759 0.250252,-0.60303 0.08489,-0.64713 -0.08489,-0.64712 -0.250252,-0.60248 -0.396875,-0.51815 -0.518143,-0.39742 -0.602476,-0.2497 -0.647128,-0.0849 z"
     id="path4367" />
  <path
     inkscape:connector-curvature="0"
     style="fill:none;stroke:#0000ff;stroke-width:1;stroke-linecap:round;stroke-linejoin:miter;stroke-miterlimit:4;stroke-dasharray:none"
     d="m 43.43884,170.30737 5.99998,0 0,2.99972 -5.99998,0 0,-2.99972 z"
     id="face2-cut" />
  <path
     inkscape:connector-curvature="0"
     style="fill:none;stroke:#0000ff;stroke-width:1;stroke-linecap:round;stroke-linejoin:miter;stroke-miterlimit:4;stroke-dasharray:none"
     d="m 59.891716,221.84491 -22.3,0 0,3 -6,0 0,-3 -3,0 0,48 33.3,0 0,-11.98744 -5,0 0,-26.8 3,0 0,-9.21256"
     id="path4385" />
  <path
     inkscape:connector-curvature="0"
     style="fill:none;stroke:#0000ff;stroke-width:1;stroke-linecap:round;stroke-linejoin:miter;stroke-miterlimit:4;stroke-dasharray:none"
     d="m 31.591716,259.84491 3,0 0,5 -3,0 0,-5"
     id="path4383" />
  <path
     inkscape:connector-curvature="0"
     style="fill:none;stroke:#0000ff;stroke-width:1;stroke-linecap:round;stroke-linejoin:miter;stroke-miterlimit:4;stroke-dasharray:none"
     d="m 34.591716,251.84491 3,0 0,5 -3,0 0,-5"
     id="path4381" />
  <path
     inkscape:connector-curvature="0"
     style="fill:none;stroke:#0000ff;stroke-width:1;stroke-linecap:round;stroke-linejoin:miter;stroke-miterlimit:4;stroke-dasharray:none"
     d="m 34.591716,231.84491 0,-5 3,0 0,5 -3,0"
     id="path4379" />
  <path
     inkscape:connector-curvature="0"
     style="fill:none;stroke:#0000ff;stroke-width:1;stroke-linecap:round;stroke-linejoin:miter;stroke-miterlimit:4;stroke-dasharray:none"
     d="m 31.591716,239.84491 0,-5 3,0 0,5 -3,0"
     id="face3-cut" />
  <path
     inkscape:connector-curvature="0"
     style="fill:none;stroke:#0000ff;stroke-width:1;stroke-linecap:round;stroke-linejoin:miter;stroke-miterlimit:4;stroke-dasharray:none"
     d="m 35.5,0.50712 -10,0 0,10 -22,0 0,10 -3,0 0,10 3,0 0,24 -3,0 0,10 3,0 0,10 7,0 0,-5 6,0 0,-5 -6,0 0,-20 6,0 0,-5 -6,0 0,-10 57,0 0,-19 -3,0 0,-3 3,0 0,-3 -10,0 0,6 -22,0 0,-10"
     id="path4389" />
  <path
     inkscape:connector-curvature="0"
     style="fill:none;stroke:#0000ff;stroke-width:1;stroke-linecap:round;stroke-linejoin:miter;stroke-miterlimit:4;stroke-dasharray:none"
     d="M 29.051111,5.89535 29,5.50712 29.051111,5.11889 29.200962,4.75712 29.43934,4.44646 29.75,4.20808 30.111771,4.05823 30.5,4.00712 30.888229,4.05823 31.25,4.20808 31.56066,4.44646 31.799038,4.75712 31.948889,5.11889 32,5.50712 31.948889,5.89535 31.799038,6.25712 31.56066,6.56778 31.25,6.80616 30.888229,6.95601 30.5,7.00712 30.111771,6.95602 29.75,6.80617 29.43934,6.56779 29.200962,6.25713 29.051111,5.89536"
     id="face4-cut" />
  <path
     inkscape:connector-curvature="0"
     style="fill:none;stroke:#0000ff;stroke-width:1;stroke-linecap:round;stroke-linejoin:miter;stroke-miterlimit:4;stroke-dasharray:none"
     d="m 0.5071212,355.32268 0,48 86.9999998,0 0,-48 -3,0 0,3 -6,0 0,-3 -68.9999998,0 0,3 -6,0 0,-3 -3,0"
     id="path4421" />
  <path
     inkscape:connector-curvature="0"
     style="fill:none;stroke:#0000ff;stroke-width:1;stroke-linecap:round;stroke-linejoin:miter;stroke-miterlimit:4;stroke-dasharray:none"
     d="m 52.207121,386.33524 0,5 -16.4,0 0,-5 -7,0 0,-16.8 7,0 0,-5 16.4,0 0,5 7,0 0,16.8 -7,0"
     id="path4419" />
  <path
     inkscape:connector-curvature="0"
     style="fill:none;stroke:#0000ff;stroke-width:1;stroke-linecap:round;stroke-linejoin:miter;stroke-miterlimit:4;stroke-dasharray:none"
     d="m 52.792306,367.38228 -0.08519,-0.64704 0.08518,-0.64705 0.249751,-0.60295 0.397297,-0.51777 0.517767,-0.3973 0.602952,-0.24975 0.647048,-0.0852 0.647048,0.0852 0.602952,0.24975 0.517767,0.3973 0.397297,0.51777 0.249751,0.60295 0.08519,0.64705 -0.08519,0.64704 -0.249751,0.60296 -0.397297,0.51776 -0.517767,0.3973 -0.602952,0.24975 -0.647048,0.0852 -0.647048,-0.0852 -0.602952,-0.24975 -0.517767,-0.3973 -0.397297,-0.51776 -0.249751,-0.60296"
     id="path4417" />
  <path
     inkscape:connector-curvature="0"
     style="fill:none;stroke:#0000ff;stroke-width:1;stroke-linecap:round;stroke-linejoin:miter;stroke-miterlimit:4;stroke-dasharray:none"
     d="m 35.306583,366.68335 -0.08519,0.64705 -0.249751,0.60295 -0.397297,0.51777 -0.517766,0.3973 -0.602953,0.24975 -0.647047,0.0852 -0.647048,-0.0852 -0.602952,-0.24975 -0.517767,-0.3973 -0.397297,-0.51777 -0.249751,-0.60295 -0.08519,-0.64705 0.08519,-0.64705 0.249751,-0.60295 0.397297,-0.51777 0.517767,-0.39729 0.602952,-0.24975 0.647048,-0.0852 0.647047,0.0852 0.602953,0.24975 0.517766,0.39729 0.397297,0.51777 0.249751,0.60295 0.08519,0.64705"
     id="path4415" />
  <path
     inkscape:connector-curvature="0"
     style="fill:none;stroke:#0000ff;stroke-width:1;stroke-linecap:round;stroke-linejoin:miter;stroke-miterlimit:4;stroke-dasharray:none"
     d="m 35.307121,389.13524 -0.08518,0.64704 -0.249751,0.60296 -0.397297,0.51776 -0.517767,0.3973 -0.602952,0.24975 -0.647048,0.0852 -0.647048,-0.0852 -0.602952,-0.24975 -0.517767,-0.3973 -0.397297,-0.51776 -0.249751,-0.60296 -0.08519,-0.64704 0.08519,-0.64705 0.249751,-0.60295 0.397297,-0.51777 0.517767,-0.3973 0.602952,-0.24975 0.647048,-0.0852 0.647048,0.0852 0.602952,0.24975 0.517767,0.3973 0.397297,0.51777 0.249751,0.60295 0.08518,0.64705"
     id="path4413" />
  <path
     inkscape:connector-curvature="0"
     style="fill:none;stroke:#0000ff;stroke-width:1;stroke-linecap:round;stroke-linejoin:miter;stroke-miterlimit:4;stroke-dasharray:none"
     d="m 57.707121,389.13524 -0.08519,0.64704 -0.249751,0.60296 -0.397297,0.51776 -0.517767,0.3973 -0.602952,0.24975 -0.647048,0.0852 -0.647048,-0.0852 -0.602952,-0.24975 -0.517767,-0.3973 -0.397297,-0.51776 -0.249751,-0.60296 -0.08518,-0.64704 0.08518,-0.64705 0.249751,-0.60295 0.397297,-0.51777 0.517767,-0.3973 0.602952,-0.24975 0.647048,-0.0852 0.647048,0.0852 0.602952,0.24975 0.517767,0.3973 0.397297,0.51777 0.249751,0.60295 0.08519,0.64705"
     id="path4411" />
  <path
     inkscape:connector-curvature="0"
     style="fill:none;stroke:#0000ff;stroke-width:1;stroke-linecap:round;stroke-linejoin:miter;stroke-miterlimit:4;stroke-dasharray:none"
     d="m 9.5071212,360.32268 0,5 -3,0 0,-5 3,0"
     id="path4409" />
  <path
     inkscape:connector-curvature="0"
     style="fill:none;stroke:#0000ff;stroke-width:1;stroke-linecap:round;stroke-linejoin:miter;stroke-miterlimit:4;stroke-dasharray:none"
     d="m 3.5071212,373.32268 0,-5 3,0 0,5 -3,0"
     id="path4407" />
  <path
     inkscape:connector-curvature="0"
     style="fill:none;stroke:#0000ff;stroke-width:1;stroke-linecap:round;stroke-linejoin:miter;stroke-miterlimit:4;stroke-dasharray:none"
     d="m 9.5071212,385.32268 0,5 -3,0 0,-5 3,0"
     id="path4405" />
  <path
     inkscape:connector-curvature="0"
     style="fill:none;stroke:#0000ff;stroke-width:1;stroke-linecap:round;stroke-linejoin:miter;stroke-miterlimit:4;stroke-dasharray:none"
     d="m 6.5071212,398.32268 -3,0 0,-5 3,0 0,5"
     id="path4403" />
  <path
     inkscape:connector-curvature="0"
     style="fill:none;stroke:#0000ff;stroke-width:1;stroke-linecap:round;stroke-linejoin:miter;stroke-miterlimit:4;stroke-dasharray:none"
     d="m 81.507121,360.32268 0,5 -3,0 0,-5 3,0"
     id="path4401" />
  <path
     inkscape:connector-curvature="0"
     style="fill:none;stroke:#0000ff;stroke-width:1;stroke-linecap:round;stroke-linejoin:miter;stroke-miterlimit:4;stroke-dasharray:none"
     d="m 81.507121,373.32268 0,-5 3,0 0,5 -3,0"
     id="path4399" />
  <path
     inkscape:connector-curvature="0"
     style="fill:none;stroke:#0000ff;stroke-width:1;stroke-linecap:round;stroke-linejoin:miter;stroke-miterlimit:4;stroke-dasharray:none"
     d="m 81.507121,390.32268 -3,0 0,-5 3,0 0,5"
     id="path4397" />
  <path
     inkscape:connector-curvature="0"
     style="fill:none;stroke:#0000ff;stroke-width:1;stroke-linecap:round;stroke-linejoin:miter;stroke-miterlimit:4;stroke-dasharray:none"
     d="m 84.507121,393.32268 0,5 -3,0 0,-5 3,0"
     id="path4395" />
  <path
     inkscape:connector-curvature="0"
     style="fill:none;stroke:#0000ff;stroke-width:1;stroke-linecap:round;stroke-linejoin:miter;stroke-miterlimit:4;stroke-dasharray:none"
     d="m 44.39535,398.77157 -0.388229,0.0511 -0.388229,-0.0511 -0.361771,-0.14985 -0.31066,-0.23838 -0.238378,-0.31066 -0.149851,-0.36177 -0.05111,-0.38823 0.05111,-0.38823 0.149851,-0.36177 0.238378,-0.31066 0.31066,-0.23838 0.361771,-0.14985 0.388229,-0.0511 0.388229,0.0511 0.361771,0.14985 0.31066,0.23838 0.238378,0.31066 0.149851,0.36177 0.05111,0.38824 -0.05111,0.38823 -0.149851,0.36177 -0.238378,0.31066 -0.31066,0.23838 -0.361771,0.14985"
     id="path4393" />
  <path
     inkscape:connector-curvature="0"
     style="fill:none;stroke:#0000ff;stroke-width:1;stroke-linecap:round;stroke-linejoin:miter;stroke-miterlimit:4;stroke-dasharray:none"
     d="m 43.644774,356.97038 0.362347,-0.0477 0.362347,0.0477 0.337653,0.13986 0.289949,0.22249 0.222487,0.28995 0.13986,0.33765 0.0477,0.36235 -0.0477,0.36235 -0.13986,0.33765 -0.222487,0.28995 -0.289953,0.22249 -0.337653,0.13986 -0.362347,0.0477 -0.362347,-0.0477 -0.337653,-0.13986 -0.289949,-0.22249 -0.222487,-0.28995 -0.13986,-0.33765 -0.0477,-0.36235 0.0477,-0.36235 0.13986,-0.33765 0.222487,-0.28995 0.289949,-0.22249 0.337653,-0.13986"
     id="face5-cut" />
  <path
     inkscape:connector-curvature="0"
     style="fill:none;stroke:#0000ff;stroke-width:1;stroke-linecap:round;stroke-linejoin:miter;stroke-miterlimit:4;stroke-dasharray:none"
     d="m 32.6167,450.64158 0,-15 -4.5,0 0,-15 -3.5,0 0,-3 -3,0 0,3 -3.5,0 0,19.5 -3,0 0,6 3,0 0,19.5 3.5,0 0,3 3,0 0,-3 3.5,0 0,-15 4.5,0"
     id="path4425" />
  <path
     inkscape:connector-curvature="0"
     style="fill:none;stroke:#0000ff;stroke-width:1;stroke-linecap:round;stroke-linejoin:miter;stroke-miterlimit:4;stroke-dasharray:none"
     d="m 25.201885,443.78863 -0.08518,-0.64705 0.08518,-0.64705 0.249751,-0.60295 0.397297,-0.51777 0.517767,-0.39729 0.602952,-0.24975 0.647048,-0.0852 0.647048,0.0852 0.602952,0.24975 0.517767,0.39729 0.397297,0.51777 0.249751,0.60295 0.08519,0.64704 -0.08519,0.64705 -0.249751,0.60295 -0.397297,0.51777 -0.517767,0.39729 -0.602952,0.24975 -0.647048,0.0852 -0.647048,-0.0852 -0.602952,-0.24975 -0.517767,-0.39729 -0.397297,-0.51777 -0.249751,-0.60295"
     id="face6-cut" />
  <path
     inkscape:connector-curvature="0"
     style="fill:none;stroke:#0000ff;stroke-width:1;stroke-linecap:round;stroke-linejoin:miter;stroke-miterlimit:4;stroke-dasharray:none"
     d="m 87.5,353.08298 0,-144 -87,0 0,144 87,0"
     id="path4445" />
  <path
     inkscape:connector-curvature="0"
     style="fill:none;stroke:#0000ff;stroke-width:1;stroke-linecap:round;stroke-linejoin:miter;stroke-miterlimit:4;stroke-dasharray:none"
     d="m 69.605858,228.3022 0.410951,-0.0541 0.410951,0.0541 0.382945,0.15862 0.328842,0.25233 0.25233,0.32884 0.158621,0.38295 0.0541,0.41095 -0.0541,0.41095 -0.158621,0.38295 -0.25233,0.32884 -0.328842,0.25233 -0.382945,0.15862 -0.410951,0.0541 -0.410951,-0.0541 -0.382945,-0.15862 -0.328842,-0.25233 -0.25233,-0.32884 -0.158621,-0.38295 -0.0541,-0.41095 0.0541,-0.41095 0.158621,-0.38295 0.25233,-0.32884 0.328842,-0.25233 0.382945,-0.15862"
     id="path4443" />
  <path
     inkscape:connector-curvature="0"
     style="fill:none;stroke:#0000ff;stroke-width:1;stroke-linecap:round;stroke-linejoin:miter;stroke-miterlimit:4;stroke-dasharray:none"
     d="m 69.533413,256.2791 0.431512,-0.0568 0.431513,0.0568 0.402105,0.16656 0.345296,0.26496 0.264954,0.34529 0.166558,0.40211 0.05681,0.43151 -0.05681,0.43151 -0.166558,0.40211 -0.264954,0.34529 -0.345296,0.26496 -0.402105,0.16656 -0.431513,0.0568 -0.431512,-0.0568 -0.402105,-0.16656 -0.345296,-0.26496 -0.264954,-0.34529 -0.166558,-0.40211 -0.05681,-0.43151 0.05681,-0.43151 0.166558,-0.40211 0.264954,-0.34529 0.345296,-0.26496 0.402105,-0.16656"
     id="path4441" />
  <path
     inkscape:connector-curvature="0"
     style="fill:none;stroke:#0000ff;stroke-width:1;stroke-linecap:round;stroke-linejoin:miter;stroke-miterlimit:4;stroke-dasharray:none"
     d="m 18.196128,212.87809 0.445314,-0.0984 0.455611,0.0202 0.434859,0.13743 0.384472,0.24529 0.307884,0.33645 0.210315,0.40467 0.09841,0.44531 -0.0202,0.45561 -0.137429,0.43486 -0.245297,0.38448 -0.336447,0.30788 -0.40467,0.21031 -0.445314,0.0984 -0.455611,-0.0202 -0.434859,-0.13743 -0.384472,-0.2453 -0.307884,-0.33644 -0.210314,-0.40467 -0.09841,-0.44532 0.0202,-0.45561 0.13743,-0.43486 0.245297,-0.38447 0.336447,-0.30788 0.404669,-0.21032"
     id="path4439" />
  <path
     inkscape:connector-curvature="0"
     style="fill:none;stroke:#0000ff;stroke-width:1;stroke-linecap:round;stroke-linejoin:miter;stroke-miterlimit:4;stroke-dasharray:none"
     d="m 17.359229,261.31665 0.433649,-0.0571 0.43365,0.0571 0.404097,0.16738 0.347005,0.26627 0.266268,0.347 0.167382,0.4041 0.05709,0.43365 -0.05709,0.43365 -0.167382,0.40409 -0.266268,0.34701 -0.347005,0.26627 -0.404097,0.16738 -0.43365,0.0571 -0.433649,-0.0571 -0.404097,-0.16738 -0.347006,-0.26627 -0.266267,-0.34701 -0.167383,-0.40409 -0.05709,-0.43365 0.05709,-0.43365 0.167383,-0.4041 0.266267,-0.347 0.347006,-0.26627 0.404097,-0.16738"
     id="path4437" />
  <path
     inkscape:connector-curvature="0"
     style="fill:none;stroke:#0000ff;stroke-width:1;stroke-linecap:round;stroke-linejoin:miter;stroke-miterlimit:4;stroke-dasharray:none"
     d="m 78.5,284.08298 0,60 -69,0 0,-60 15,0 0,-66 39,0 0,66 15,0"
     id="path4435" />
  <path
     inkscape:connector-curvature="0"
     style="fill:none;stroke:#0000ff;stroke-width:1;stroke-linecap:round;stroke-linejoin:miter;stroke-miterlimit:4;stroke-dasharray:none"
     d="m 6.5,309.08298 -3,0 0,-10 3,0 0,10"
     id="path4433" />
  <path
     inkscape:connector-curvature="0"
     style="fill:none;stroke:#0000ff;stroke-width:1;stroke-linecap:round;stroke-linejoin:miter;stroke-miterlimit:4;stroke-dasharray:none"
     d="m 6.5,333.08298 0,10 -3,0 0,-10 3,0"
     id="path4431" />
  <path
     inkscape:connector-curvature="0"
     style="fill:none;stroke:#0000ff;stroke-width:1;stroke-linecap:round;stroke-linejoin:miter;stroke-miterlimit:4;stroke-dasharray:none"
     d="m 81.5,333.08298 3,0 0,10 -3,0 0,-10"
     id="path4429" />
  <path
     inkscape:connector-curvature="0"
     style="fill:none;stroke:#0000ff;stroke-width:1;stroke-linecap:round;stroke-linejoin:miter;stroke-miterlimit:4;stroke-dasharray:none"
     d="m 81.5,299.08298 3,0 0,10 -3,0 0,-10"
     id="face7-cut" />
  <path
     inkscape:connector-curvature="0"
     style="fill:none;stroke:#0000ff;stroke-width:1;stroke-linecap:round;stroke-linejoin:miter;stroke-miterlimit:4;stroke-dasharray:none"
     d="m 64.121135,287.29642 0,12 3,0 0,27 -3,0 0,12 10,0 0,-19.5 3,0 0,-12 -3,0 0,-19.5 -10,0"
     id="path4453" />
  <path
     inkscape:connector-curvature="0"
     style="fill:none;stroke:#0000ff;stroke-width:1;stroke-linecap:round;stroke-linejoin:miter;stroke-miterlimit:4;stroke-dasharray:none"
     d="m 71.531277,314.36994 0.0825,-3.13534 0.0165,-0.50094 1.091792,0.0305 -0.115243,4.12787 -1.091045,-0.0305 0.01549,-0.49161"
     id="path4451" />
  <path
     inkscape:connector-curvature="0"
     style="fill:none;stroke:#0000ff;stroke-width:1;stroke-linecap:round;stroke-linejoin:miter;stroke-miterlimit:4;stroke-dasharray:none"
     d="m 67.621135,332.29642 3,0 0,3 -3,0 0,-3"
     id="path4449" />
  <path
     inkscape:connector-curvature="0"
     style="fill:none;stroke:#0000ff;stroke-width:1;stroke-linecap:round;stroke-linejoin:miter;stroke-miterlimit:4;stroke-dasharray:none"
     d="m 70.621135,290.29642 0,3 -3,0 0,-3 3,0"
     id="face8-cut" />
  <path
     inkscape:connector-curvature="0"
     style="fill:none;stroke:#0000ff;stroke-width:1;stroke-linecap:round;stroke-linejoin:miter;stroke-miterlimit:4;stroke-dasharray:none"
     d="m 61.237126,38.08221 0,-6 -20,0 0,6 20,0"
     id="path4459" />
  <path
     inkscape:connector-curvature="0"
     style="fill:none;stroke:#0000ff;stroke-width:1;stroke-linecap:round;stroke-linejoin:miter;stroke-miterlimit:4;stroke-dasharray:none"
     d="m 45.848897,33.63332 0.388229,-0.05111 0.388229,0.0511 0.361771,0.14985 0.31066,0.23838 0.238378,0.31066 0.149851,0.36177 0.05111,0.38824 -0.05111,0.38823 -0.149851,0.36177 -0.238378,0.31066 -0.31066,0.23838 -0.361771,0.14985 -0.388229,0.05111 -0.388229,-0.05111 -0.361771,-0.14985 -0.31066,-0.23838 -0.238378,-0.31066 -0.149851,-0.36177 -0.05111,-0.38823 0.05111,-0.38823 0.149851,-0.36177 0.238378,-0.31066 0.31066,-0.23838 0.361771,-0.14985"
     id="path4457" />
  <path
     inkscape:connector-curvature="0"
     style="fill:none;stroke:#0000ff;stroke-width:1;stroke-linecap:round;stroke-linejoin:miter;stroke-miterlimit:4;stroke-dasharray:none"
     d="m 55.848897,33.63332 0.388229,-0.05111 0.388229,0.0511 0.361771,0.14985 0.31066,0.23838 0.238378,0.31066 0.149851,0.36177 0.05111,0.38824 -0.05111,0.38823 -0.149851,0.36177 -0.238378,0.31066 -0.31066,0.23838 -0.361771,0.14985 -0.388229,0.05111 -0.388229,-0.05111 -0.361771,-0.14985 -0.31066,-0.23838 -0.238378,-0.31066 -0.149851,-0.36177 -0.05111,-0.38823 0.05111,-0.38823 0.149851,-0.36177 0.238378,-0.31066 0.31066,-0.23838 0.361771,-0.14985"
     id="face9-cut" />
  <path
     inkscape:connector-curvature="0"
     style="fill:none;stroke:#0000ff;stroke-width:1;stroke-linecap:round;stroke-linejoin:miter;stroke-miterlimit:4;stroke-dasharray:none"
     d="m 57.858209,207.5161 10,0 0,-10 22,0 -2e-6,-64 -7,0 0,10 0,3 -6,0 0,5 6,0 1e-6,17 0,3 -6,0 0,5 6,0 0,2 -57,0 10e-7,19 3,0 0,3 -3,0 0,3 10,0 0,-6 22,0 0,10"
     id="path4465" />
  <path
     inkscape:connector-curvature="0"
     style="fill:none;stroke:#0000ff;stroke-width:1;stroke-linecap:round;stroke-linejoin:miter;stroke-miterlimit:4;stroke-dasharray:none"
     d="m 85.858208,186.5161 0,3 -50,0 0,-3 50,0"
     id="path4463" />
  <path
     inkscape:connector-curvature="0"
     style="fill:none;stroke:#0000ff;stroke-width:1;stroke-linecap:round;stroke-linejoin:miter;stroke-miterlimit:4;stroke-dasharray:none"
     d="m 64.307097,202.12787 0.05111,0.38823 -0.05111,0.38823 -0.14985,0.36177 -0.238378,0.31066 -0.31066,0.23838 -0.361772,0.14985 -0.388228,0.0511 -0.388229,-0.0511 -0.361771,-0.14985 -0.31066,-0.23838 -0.238378,-0.31066 -0.149851,-0.36177 -0.05111,-0.38823 0.05111,-0.38823 0.149851,-0.36177 0.238378,-0.31066 0.31066,-0.23838 0.361771,-0.14985 0.388229,-0.0511 0.388228,0.0511 0.361772,0.14985 0.31066,0.23838 0.238378,0.31066 0.14985,0.36177"
     id="face10-cut" />
  <path
     inkscape:connector-curvature="0"
     style="fill:none;stroke:#0000ff;stroke-width:1;stroke-linecap:round;stroke-linejoin:miter;stroke-miterlimit:4;stroke-dasharray:none"
     d="m 55.941858,45.64902 -3.106602,-2.38378 -3.617714,-1.49851 -3.882286,-0.51111 -3.882286,0.51111 -3.617714,1.49851 -3.106602,2.38378 -2.383779,3.1066 -1.498506,3.61772 -0.511113,3.88228 0.511113,3.88229 1.498506,3.61771 2.383779,3.1066 3.106602,2.38378 3.617714,1.49851 3.882286,0.51111 3.882286,-0.51111 3.617714,-1.49851 3.106602,-2.38378 2.383779,-3.1066 1.498506,-3.61771 0.511113,-3.88229 -0.511113,-3.88228 -1.498506,-3.61772 -2.383779,-3.1066"
     id="path4469" />
  <path
     inkscape:connector-curvature="0"
     style="fill:none;stroke:#0000ff;stroke-width:1;stroke-linecap:round;stroke-linejoin:miter;stroke-miterlimit:4;stroke-dasharray:none"
     d="m 45.723485,57.70451 -0.388229,0.05111 -0.388229,-0.05111 -0.361771,-0.14985 -0.31066,-0.23838 -0.238378,-0.31066 -0.149851,-0.36177 -0.05111,-0.38823 0.05111,-0.38823 0.149851,-0.36177 0.238378,-0.31066 0.31066,-0.23838 0.361771,-0.14985 0.388229,-0.05111 0.388229,0.0511 0.361771,0.14985 0.31066,0.23838 0.238378,0.31066 0.149851,0.36177 0.05111,0.38824 -0.05111,0.38823 -0.149851,0.36177 -0.238378,0.31066 -0.31066,0.23838 -0.361771,0.14985"
     id="face11-cut" />
  <path
     inkscape:connector-curvature="0"
     style="fill:none;stroke:#0000ff;stroke-width:1;stroke-linecap:round;stroke-linejoin:miter;stroke-miterlimit:4;stroke-dasharray:none"
     d="m 61.915627,288.11821 -17.445947,0 0,13.91256 -1.754053,0 0,17.4 1.8,0 0,16.68744 17.4,0 0,-16.68744 1.8,0 0,-17.4 -1.8,0 0,-13.91256"
     id="path4477" />
  <path
     inkscape:connector-curvature="0"
     style="fill:none;stroke:#0000ff;stroke-width:1;stroke-linecap:round;stroke-linejoin:miter;stroke-miterlimit:4;stroke-dasharray:none"
     d="m 46.715627,317.23077 0,-4.057 -0.261481,-0.63127 -0.238519,-1.81173 0.238519,-1.81174 0.261481,-0.63127 0,-4.05699 4.056996,0 0.631271,-0.26148 1.811733,-0.23852 1.811733,0.23852 0.631271,0.26148 4.056996,0 0,4.05699 0.261481,0.63127 0.238519,1.81174 -0.238519,1.81173 -0.261481,0.63127 0,4.057 -4.056996,0 -0.631271,0.26148 -1.811733,0.23852 -1.811733,-0.23852 -0.631271,-0.26148 -4.056996,0"
     id="path4475" />
  <path
     inkscape:connector-curvature="0"
     style="fill:none;stroke:#0000ff;stroke-width:1;stroke-linecap:round;stroke-linejoin:miter;stroke-miterlimit:4;stroke-dasharray:none"
     d="m 53.603856,331.5671 -0.388229,0.0511 -0.388229,-0.0511 -0.361771,-0.14985 -0.31066,-0.23838 -0.238378,-0.31066 -0.149851,-0.36177 -0.05111,-0.38823 0.05111,-0.38823 0.149851,-0.36177 0.238378,-0.31066 0.31066,-0.23838 0.361771,-0.14985 0.388229,-0.0511 0.388229,0.0511 0.361771,0.14985 0.31066,0.23838 0.238378,0.31066 0.149851,0.36177 0.05111,0.38824 -0.05111,0.38823 -0.149851,0.36177 -0.238378,0.31066 -0.31066,0.23838 -0.361771,0.14985"
     id="path4473" />
  <path
     inkscape:connector-curvature="0"
     style="fill:none;stroke:#0000ff;stroke-width:1;stroke-linecap:round;stroke-linejoin:miter;stroke-miterlimit:4;stroke-dasharray:none"
     d="m 52.804425,289.66932 0.388228,-0.0511 0.388229,0.0511 0.361771,0.14985 0.310661,0.23838 0.238378,0.31066 0.14985,0.36177 0.05111,0.38823 -0.05111,0.38823 -0.14985,0.36177 -0.238378,0.31066 -0.310661,0.23838 -0.361771,0.14985 -0.388229,0.0511 -0.388228,-0.0511 -0.361772,-0.14985 -0.31066,-0.23838 -0.238378,-0.31066 -0.14985,-0.36177 -0.05111,-0.38823 0.05111,-0.38823 0.14985,-0.36177 0.238378,-0.31066 0.31066,-0.23838 0.361772,-0.14985"
     id="face12-cut" />
  <path
     inkscape:connector-curvature="0"
     style="fill:none;stroke:#0000ff;stroke-width:1;stroke-linecap:round;stroke-linejoin:miter;stroke-miterlimit:4;stroke-dasharray:none"
     d="m 85.356667,24.65397 0,-6 3,0 0,-3 -6,0 0,35 -4,0 0,2 4,0 0,1 -4,0 0,2 4,0 0,1 -4,0 0,2 4,0 0,0.5 0,0.5 -4,0 0,2 4,0 0,1 -4,0 0,2 4,0 0,1 -4,0 0,2 4,0 0,35 6,0 0,-3 -3,0 0,-6 3,0 0,-69 -3,0"
     id="face13-cut" />
  <path
     inkscape:connector-curvature="0"
     style="fill:none;stroke:#0000ff;stroke-width:1;stroke-linecap:round;stroke-linejoin:miter;stroke-miterlimit:4;stroke-dasharray:none"
     d="m 71.358757,405.4578 0,12 3,0 0,27 -3,0 0,12 10,0 0,-19.5 3,0 0,-12 -3,0 0,-19.5 -10,0"
     id="path4487" />
  <path
     inkscape:connector-curvature="0"
     style="fill:none;stroke:#0000ff;stroke-width:1;stroke-linecap:round;stroke-linejoin:miter;stroke-miterlimit:4;stroke-dasharray:none"
     d="m 78.768899,432.53132 0.0825,-3.13534 0.0165,-0.50094 1.091792,0.0305 -0.115243,4.12787 -1.091045,-0.0305 0.01549,-0.49161"
     id="path4485" />
  <path
     inkscape:connector-curvature="0"
     style="fill:none;stroke:#0000ff;stroke-width:1;stroke-linecap:round;stroke-linejoin:miter;stroke-miterlimit:4;stroke-dasharray:none"
     d="m 74.858757,450.4578 3,0 0,3 -3,0 0,-3"
     id="path4483" />
  <path
     inkscape:connector-curvature="0"
     style="fill:none;stroke:#0000ff;stroke-width:1;stroke-linecap:round;stroke-linejoin:miter;stroke-miterlimit:4;stroke-dasharray:none"
     d="m 77.858757,408.4578 0,3 -3,0 0,-3 3,0"
     id="face14-cut" />
  <path
     inkscape:connector-curvature="0"
     style="fill:none;stroke:#0000ff;stroke-width:1;stroke-linecap:round;stroke-linejoin:miter;stroke-miterlimit:4;stroke-dasharray:none"
     d="m 42.37116,288.99597 -22.3,0 0,3 -6,0 0,-3 -3,0 0,48 33.3,0 0,-11.98744 -5,0 0,-26.8 3,0 0,-9.21256"
     id="path4497" />
  <path
     inkscape:connector-curvature="0"
     style="fill:none;stroke:#0000ff;stroke-width:1;stroke-linecap:round;stroke-linejoin:miter;stroke-miterlimit:4;stroke-dasharray:none"
     d="m 14.07116,326.99597 3,0 0,5 -3,0 0,-5"
     id="path4495" />
  <path
     inkscape:connector-curvature="0"
     style="fill:none;stroke:#0000ff;stroke-width:1;stroke-linecap:round;stroke-linejoin:miter;stroke-miterlimit:4;stroke-dasharray:none"
     d="m 17.07116,318.99597 3,0 0,5 -3,0 0,-5"
     id="path4493" />
  <path
     inkscape:connector-curvature="0"
     style="fill:none;stroke:#0000ff;stroke-width:1;stroke-linecap:round;stroke-linejoin:miter;stroke-miterlimit:4;stroke-dasharray:none"
     d="m 17.07116,298.99597 0,-5 3,0 0,5 -3,0"
     id="path4491" />
  <path
     inkscape:connector-curvature="0"
     style="fill:none;stroke:#0000ff;stroke-width:1;stroke-linecap:round;stroke-linejoin:miter;stroke-miterlimit:4;stroke-dasharray:none"
     d="m 14.07116,306.99597 0,-5 3,0 0,5 -3,0"
     id="face15-cut" />
  <path
     inkscape:connector-curvature="0"
     style="fill:none;stroke:#0000ff;stroke-width:1;stroke-linecap:round;stroke-linejoin:miter;stroke-miterlimit:4;stroke-dasharray:none"
     d="m 72.644871,438.29839 0,-15 -4.5,0 0,-15 -3.5,0 0,-3 -3,0 0,3 -3.5,0 0,19.5 -3,0 0,6 3,0 0,19.5 3.5,0 0,3 3,0 0,-3 3.5,0 0,-15 4.5,0"
     id="path4501" />
  <path
     inkscape:connector-curvature="0"
     style="fill:none;stroke:#0000ff;stroke-width:1;stroke-linecap:round;stroke-linejoin:miter;stroke-miterlimit:4;stroke-dasharray:none"
     d="m 65.230056,431.44539 -0.08519,-0.647 0.08518,-0.647 0.249751,-0.603 0.397297,-0.5178 0.517767,-0.3973 0.602952,-0.2497 0.647053,-0.0852 0.647048,0.085 0.602952,0.2497 0.517767,0.3973 0.397297,0.5178 0.249751,0.603 0.08518,0.647 -0.08518,0.647 -0.249751,0.603 -0.397297,0.5178 -0.517767,0.3973 -0.602952,0.2497 -0.647048,0.0854 -0.647048,-0.085 -0.602952,-0.2497 -0.517767,-0.3973 -0.397297,-0.5178 -0.249751,-0.603"
     id="face16-cut" />
  <path
     inkscape:connector-curvature="0"
     style="fill:none;stroke:#0000ff;stroke-width:1;stroke-linecap:round;stroke-linejoin:miter;stroke-miterlimit:4;stroke-dasharray:none"
     d="m 75.5,515.8084 0,-33 -75,0 0,33 75,0"
     id="path4519" />
  <path
     inkscape:connector-curvature="0"
     style="fill:none;stroke:#0000ff;stroke-width:1;stroke-linecap:round;stroke-linejoin:miter;stroke-miterlimit:4;stroke-dasharray:none"
     d="m 34.5,512.8084 -0.05111,0.3882 -0.149851,0.3618 -0.238378,0.3107 -0.31066,0.2383 -0.361771,0.1499 -0.38823,0.051 -0.388229,-0.051 -0.361771,-0.1499 -0.31066,-0.2383 -0.238378,-0.3107 -0.149851,-0.3618 -0.05111,-0.3882 0.05111,-0.3882 0.149851,-0.3618 0.238378,-0.3107 0.31066,-0.2383 0.361771,-0.1499 0.388229,-0.051 0.388229,0.051 0.361771,0.1499 0.31066,0.2383 0.238378,0.3107 0.149851,0.3618 0.05111,0.3882"
     id="path4517" />
  <path
     inkscape:connector-curvature="0"
     style="fill:none;stroke:#0000ff;stroke-width:1;stroke-linecap:round;stroke-linejoin:miter;stroke-miterlimit:4;stroke-dasharray:none"
     d="m 43,514.3084 -0.388229,-0.051 -0.361771,-0.1499 -0.31066,-0.2383 -0.238378,-0.3107 -0.149851,-0.3618 -0.05111,-0.3883 0.05111,-0.3882 0.149851,-0.3618 0.238378,-0.3107 0.31066,-0.2383 0.361771,-0.1499 0.388229,-0.051 0.388229,0.051 0.361771,0.1499 0.31066,0.2383 0.238378,0.3107 0.149851,0.3618 0.05111,0.3882 -0.05111,0.3882 -0.149851,0.3618 -0.238378,0.3107 -0.31066,0.2383 -0.361771,0.1499 L 43,514.3084"
     id="path4515" />
  <path
     inkscape:connector-curvature="0"
     style="fill:none;stroke:#0000ff;stroke-width:1;stroke-linecap:round;stroke-linejoin:miter;stroke-miterlimit:4;stroke-dasharray:none"
     d="M 32.611771,484.3595 33,484.3084 l 0.388229,0.051 0.361771,0.1499 0.31066,0.2383 0.238378,0.3107 0.149851,0.3618 0.05111,0.3883 -0.05111,0.3882 -0.149851,0.3618 -0.238378,0.3107 -0.31066,0.2383 -0.361771,0.1499 -0.38823,0.051 -0.388229,-0.051 -0.361771,-0.1499 -0.31066,-0.2383 -0.238378,-0.3107 -0.149851,-0.3618 -0.05111,-0.3882 0.05111,-0.3882 0.149851,-0.3618 0.238378,-0.3107 0.31066,-0.2383 0.361771,-0.1499"
     id="path4513" />
  <path
     inkscape:connector-curvature="0"
     style="fill:none;stroke:#0000ff;stroke-width:1;stroke-linecap:round;stroke-linejoin:miter;stroke-miterlimit:4;stroke-dasharray:none"
     d="m 44.5,485.8084 -0.05111,0.3882 -0.149851,0.3618 -0.238378,0.3107 -0.31066,0.2383 -0.361771,0.1499 -0.38823,0.051 -0.388229,-0.051 -0.361771,-0.1499 -0.31066,-0.2383 -0.238378,-0.3107 -0.149851,-0.3618 -0.05111,-0.3882 0.05111,-0.3882 0.149851,-0.3618 0.238378,-0.3107 0.31066,-0.2383 0.361771,-0.1499 0.388229,-0.051 0.388229,0.051 0.361771,0.1499 0.31066,0.2383 0.238378,0.3107 0.149851,0.3618 0.05111,0.3882"
     id="path4511" />
  <path
     inkscape:connector-curvature="0"
     style="fill:none;stroke:#0000ff;stroke-width:1;stroke-linecap:round;stroke-linejoin:miter;stroke-miterlimit:4;stroke-dasharray:none"
     d="m 56.5,502.8084 5,0 0,3 -5,0 0,-3"
     id="path4509" />
  <path
     inkscape:connector-curvature="0"
     style="fill:none;stroke:#0000ff;stroke-width:1;stroke-linecap:round;stroke-linejoin:miter;stroke-miterlimit:4;stroke-dasharray:none"
     d="m 14.5,502.8084 5,0 0,3 -5,0 0,-3"
     id="path4507" />
  <path
     inkscape:connector-curvature="0"
     style="fill:none;stroke:#0000ff;stroke-width:1;stroke-linecap:round;stroke-linejoin:miter;stroke-miterlimit:4;stroke-dasharray:none"
     d="m 57.5,492.8084 3,0 0,3 -3,0 0,-3"
     id="path4505" />
  <path
     inkscape:connector-curvature="0"
     style="fill:none;stroke:#0000ff;stroke-width:1;stroke-linecap:round;stroke-linejoin:miter;stroke-miterlimit:4;stroke-dasharray:none"
     d="m 18.5,495.8084 -3,0 0,-3 3,0 0,3"
     id="face17-cut" />
  <path
     inkscape:connector-curvature="0"
     style="fill:none;stroke:#0000ff;stroke-width:1;stroke-linecap:round;stroke-linejoin:miter;stroke-miterlimit:4;stroke-dasharray:none"
     d="m 79.06783,97.1024 -7,0 0,-3 -3,0 0,3 10,18 0,-3 3,0 0,-3 -3,0 0,-12"
     id="face18-cut" />
  <path
     inkscape:connector-curvature="0"
     style="fill:none;stroke:#0000ff;stroke-width:1;stroke-linecap:round;stroke-linejoin:miter;stroke-miterlimit:4;stroke-dasharray:none"
     d="m 0.5071212,405.11396 10e-7,75 42.9999998,0 0,-9 10,0 0,-5 3,0 0,-5 -3,0 -1e-6,-37 3,0 0,-5 -3,0 0,-5 -10,0 0,-9 -42.9999998,0"
     id="path4529" />
  <path
     inkscape:connector-curvature="0"
     style="fill:none;stroke:#0000ff;stroke-width:1;stroke-linecap:round;stroke-linejoin:miter;stroke-miterlimit:4;stroke-dasharray:none"
     d="m 48.507121,435.11396 0,3 2,0 1e-6,9 -2,0 0,3 -3,0 0,-3 -10,0 0,27.5 -22,0 0,-27.5 -6.9999998,0 0,3 -3,0 0,-3 -1.5,0 -1e-6,-9 1.5,0 0,-3 3,0 0,3 6.9999998,0 0,-27.5 22,0 0,27.5 10,0 0,-3 3,0"
     id="path4527" />
  <path
     inkscape:connector-curvature="0"
     style="fill:none;stroke:#0000ff;stroke-width:1;stroke-linecap:round;stroke-linejoin:miter;stroke-miterlimit:4;stroke-dasharray:none"
     d="m 38.507122,462.11396 3,0 0,3 -3,0 0,-3"
     id="path4525" />
  <path
     inkscape:connector-curvature="0"
     style="fill:none;stroke:#0000ff;stroke-width:1;stroke-linecap:round;stroke-linejoin:miter;stroke-miterlimit:4;stroke-dasharray:none"
     d="m 38.507121,423.11396 0,-3 3,0 0,3 -3,0"
     id="face19-cut" />
  <path
     inkscape:connector-curvature="0"
     style="fill:none;stroke:#0000ff;stroke-width:1;stroke-linecap:round;stroke-linejoin:miter;stroke-miterlimit:4;stroke-dasharray:none"
     d="m 44.623356,101.8339 10,0 0,-10 22,0 0,-10 3,0 0,-10 -3,0 0,-24 3,0 0,-10 -3,0 0,-10 -7,0 0,5 -6,0 0,5 6,0 0,20 -6,0 0,5 6,0 0,10 -57,0 0,19 3,0 0,3 -3,0 0,3 10,0 0,-6 22,0 0,10"
     id="path4533" />
  <path
     inkscape:connector-curvature="0"
     style="fill:none;stroke:#0000ff;stroke-width:1;stroke-linecap:round;stroke-linejoin:miter;stroke-miterlimit:4;stroke-dasharray:none"
     d="m 51.072245,96.4457 0.05111,0.3882 -0.05111,0.3882 -0.149851,0.3618 -0.238378,0.3107 -0.31066,0.2383 -0.361771,0.1499 -0.38823,0.0511 -0.388229,-0.051 -0.361771,-0.1499 -0.31066,-0.2383 -0.238378,-0.3107 -0.149851,-0.3618 -0.05111,-0.3883 0.05111,-0.3882 0.149851,-0.3618 0.238378,-0.3107 0.31066,-0.2383 0.361771,-0.1499 0.38823,-0.0511 0.388229,0.051 0.361771,0.1499 0.31066,0.2383 0.238378,0.3107 0.149851,0.3618"
     id="face20-cut" />
  <path
     inkscape:connector-curvature="0"
     style="fill:none;stroke:#0000ff;stroke-width:1;stroke-linecap:round;stroke-linejoin:miter;stroke-miterlimit:4;stroke-dasharray:none"
     d="m 34.757778,94.1951 -10,0 0,10 -22.0000004,0 0,64 7,0 0,-10 0,-3 6.0000004,0 0,-5 -6.0000004,0 0,-17 0,-3 6.0000004,0 0,-5 -6.0000004,0 0,-2 57.0000004,0 0,-19 -3,0 0,-3 3,0 0,-3 -10,0 0,6 -22,0 0,-10"
     id="path4539" />
  <path
     inkscape:connector-curvature="0"
     style="fill:none;stroke:#0000ff;stroke-width:1;stroke-linecap:round;stroke-linejoin:miter;stroke-miterlimit:4;stroke-dasharray:none"
     d="m 6.7577776,115.1951 0,-3 50.0000004,0 0,3 -50.0000004,0"
     id="path4537" />
  <path
     inkscape:connector-curvature="0"
     style="fill:none;stroke:#0000ff;stroke-width:1;stroke-linecap:round;stroke-linejoin:miter;stroke-miterlimit:4;stroke-dasharray:none"
     d="m 28.308889,99.5833 -0.05111,-0.3882 0.05111,-0.3882 0.149851,-0.3618 0.238378,-0.3107 0.31066,-0.2383 0.361771,-0.1499 0.38823,-0.0511 0.388229,0.051 0.361771,0.1499 0.31066,0.2383 0.238378,0.3107 0.149851,0.3618 0.05111,0.3883 -0.05111,0.3882 -0.149851,0.3618 -0.238378,0.3107 -0.31066,0.2383 -0.361771,0.1499 -0.38823,0.0511 -0.388229,-0.051 -0.361771,-0.1499 -0.31066,-0.2383 -0.238378,-0.3107 -0.149851,-0.3618"
     id="face21-cut" />
</svg>
